<svg width="857" height="380" viewBox="0 0 857 380" version="1.1" xmlns="http://www.w3.org/2000/svg" xmlns:xlink="http://www.w3.org/1999/xlink">
<title>1</title>
<desc>Created using Figma</desc>
<g id="Canvas" transform="translate(-2226 -2129)">
<g id="1">
<g id="Ellipse">
<use xlink:href="#path0_fill" transform="translate(2226 2129)" fill="#FF6161"/>
</g>
<g id="Vector 4">
<use xlink:href="#path1_fill" transform="matrix(0.994491 -0.104827 0.105138 0.994458 2537 2233.47)" fill="#FFFFFF"/>
<mask id="mask0_outline_out">
<rect id="mask0_outline_inv" fill="white" x="-6" y="-5" width="26" height="170" transform="matrix(0.994491 -0.104827 0.105138 0.994458 2537 2233.47)"/>
<use xlink:href="#path1_fill" fill="black" transform="matrix(0.994491 -0.104827 0.105138 0.994458 2537 2233.47)"/>
</mask>
<g mask="url(#mask0_outline_out)">
<use xlink:href="#path2_stroke_2x" transform="matrix(0.994491 -0.104827 0.105138 0.994458 2537 2233.47)" fill="#C23E3E"/>
</g>
</g>
<g id="Vector">
<use xlink:href="#path3_fill" transform="translate(2301 2223)" fill="#FFFFFF"/>
<use xlink:href="#path4_fill" transform="translate(2301 2223)" fill="#FFFFFF"/>
<use xlink:href="#path5_stroke" transform="translate(2301 2223)" fill="#C23E3E"/>
</g>
<g id="Group">
<g id="Vector">
<use xlink:href="#path6_fill" transform="translate(2339 2245)" fill="#FFB12B"/>
<mask id="mask1_outline_out">
<rect id="mask1_outline_inv" fill="white" x="-2" y="-3" width="115" height="116" transform="translate(2339 2245)"/>
<use xlink:href="#path6_fill" fill="black" transform="translate(2339 2245)"/>
</mask>
<g mask="url(#mask1_outline_out)">
<use xlink:href="#path7_stroke_2x" transform="translate(2339 2245)" fill="#8F600E"/>
</g>
</g>
<g id="Vector 3">
<use xlink:href="#path8_fill" transform="translate(2456.63 2274.24)" fill="#FFB12B"/>
<mask id="mask2_outline_out">
<rect id="mask2_outline_inv" fill="white" x="-3" y="-3" width="10" height="10" transform="translate(2456.63 2274.24)"/>
<use xlink:href="#path8_fill" fill="black" transform="translate(2456.63 2274.24)"/>
</mask>
<g mask="url(#mask2_outline_out)">
<use xlink:href="#path9_stroke_2x" transform="translate(2456.63 2274.24)" fill="#8F600E"/>
</g>
</g>
<g id="Vector 2">
<use xlink:href="#path10_fill" transform="translate(2417.1 2253.73)" fill="#FFD387"/>
</g>
<g id="Vector 2.1">
<use xlink:href="#path11_fill" transform="matrix(-0.904572 -0.426321 0.424178 -0.905579 2355.73 2342.91)" fill="#FFD387"/>
</g>
</g>
<g id="Vector 3">
<mask id="mask3_outline_out">
<rect id="mask3_outline_inv" fill="white" x="-2" y="-2" width="118" height="115" transform="translate(2378.6 2288.85)"/>
<use xlink:href="#path12_fill" fill="black" transform="translate(2378.6 2288.85)"/>
</mask>
<g mask="url(#mask3_outline_out)">
<use xlink:href="#path13_stroke_2x" transform="translate(2378.6 2288.85)" fill="#692F27"/>
</g>
</g>
<g id="Mask Group">
<mask id="mask4_alpha" mask-type="alpha">
<g id="Vector 3">
<use xlink:href="#path12_fill" transform="translate(2378.6 2288.85)" fill="#EB7E6D"/>
</g>
</mask>
<g id="Vector 3" mask="url(#mask4_alpha)">
<use xlink:href="#path14_fill" transform="translate(2375.65 2287.99)" fill="#E35D49"/>
</g>
<g id="Vector 3" mask="url(#mask4_alpha)">
<use xlink:href="#path15_fill" transform="translate(2372.46 2286.75)" fill="#E86C58"/>
</g>
<g id="Vector 3" mask="url(#mask4_alpha)">
<use xlink:href="#path16_fill" transform="translate(2429.17 2298.7)" fill="#F29B8D"/>
</g>
<g id="Vector 3" mask="url(#mask4_alpha)">
<use xlink:href="#path17_fill" transform="translate(2369.55 2352.28)" fill="#E86C58"/>
</g>
<g id="Vector 3" mask="url(#mask4_alpha)">
<use xlink:href="#path18_fill" transform="translate(2430.29 2368.77)" fill="#E6B8B0"/>
</g>
<g id="Vector 4" mask="url(#mask4_alpha)">
<use xlink:href="#path19_fill" transform="translate(2385.87 2284.61)" fill="#FFC8BF"/>
</g>
<g id="Vector 5" mask="url(#mask4_alpha)">
<use xlink:href="#path20_fill" transform="translate(2413.82 2295.75)" fill="#FFD3CC"/>
</g>
<g id="Vector 6" mask="url(#mask4_alpha)">
<use xlink:href="#path21_fill" transform="translate(2370.9 2318.47)" fill="#FFA799"/>
</g>
<g id="Vector 3" mask="url(#mask4_alpha)">
<use xlink:href="#path22_fill" transform="translate(2370.87 2381.72)" fill="#F2DDDA" fill-opacity="0.9"/>
</g>
</g>
<g id="PiterPy">
<use xlink:href="#path23_fill" transform="translate(2688.6 2246.08)" fill="#333333"/>
<use xlink:href="#path24_fill" transform="translate(2688.6 2246.08)" fill="#333333"/>
<use xlink:href="#path25_fill" transform="translate(2688.6 2246.08)" fill="#333333"/>
<use xlink:href="#path26_fill" transform="translate(2688.6 2246.08)" fill="#333333"/>
<use xlink:href="#path27_fill" transform="translate(2688.6 2246.08)" fill="#333333"/>
<use xlink:href="#path28_fill" transform="translate(2688.6 2246.08)" fill="#333333"/>
<use xlink:href="#path29_fill" transform="translate(2688.6 2246.08)" fill="#333333"/>
</g>
<g id="Breakfast">
<use xlink:href="#path30_fill" transform="translate(2688.6 2350.73)" fill="#FF6161"/>
<use xlink:href="#path31_fill" transform="translate(2688.6 2350.73)" fill="#FF6161"/>
<use xlink:href="#path32_fill" transform="translate(2688.6 2350.73)" fill="#FF6161"/>
<use xlink:href="#path33_fill" transform="translate(2688.6 2350.73)" fill="#FF6161"/>
<use xlink:href="#path34_fill" transform="translate(2688.6 2350.73)" fill="#FF6161"/>
<use xlink:href="#path35_fill" transform="translate(2688.6 2350.73)" fill="#FF6161"/>
<use xlink:href="#path36_fill" transform="translate(2688.6 2350.73)" fill="#FF6161"/>
<use xlink:href="#path37_fill" transform="translate(2688.6 2350.73)" fill="#FF6161"/>
<use xlink:href="#path38_fill" transform="translate(2688.6 2350.73)" fill="#FF6161"/>
</g>
<g id="Vector">
<use xlink:href="#path39_fill" transform="matrix(0.966023 -0.258457 0.259182 0.965829 2234 2261.11)" fill="#FFFFFF"/>
<mask id="mask5_outline_out">
<rect id="mask5_outline_inv" fill="white" x="-6" y="-6" width="62" height="144" transform="matrix(0.966023 -0.258457 0.259182 0.965829 2234 2261.11)"/>
<use xlink:href="#path39_fill" fill="black" transform="matrix(0.966023 -0.258457 0.259182 0.965829 2234 2261.11)"/>
</mask>
<g mask="url(#mask5_outline_out)">
<use xlink:href="#path40_stroke_2x" transform="matrix(0.966023 -0.258457 0.259182 0.965829 2234 2261.11)" fill="#C23E3E"/>
</g>
</g>
</g>
</g>
<defs>
<path id="path0_fill" d="M 380 190C 380 294.934 294.934 380 190 380C 85.0659 380 0 294.934 0 190C 0 85.0659 85.0659 0 190 0C 294.934 0 380 85.0659 380 190Z"/>
<path id="path1_fill" d="M 11.3226 89.7917C 11.3226 89.7917 12.8631 8.37805 11.3226 2.14502C 9.78223 -4.08802 5.31587 2.70279 1.71152 29.9169C -1.89282 57.131 1.31531 87.394 1.31531 87.394C 1.24752 91.2128 2.53716 92.89 1.05195 95.1198C 0.876388 112.525 4.40782 135.109 3.07681 147.699C 1.71923 160.54 2.63205 158.257 6.31895 159.856C 9.07117 161.049 13.9561 151.597 13.9561 150.532C 13.8684 125.756 14.7462 94.0542 12.6394 92.9886C 10.5326 91.923 11.4104 90.4133 11.3226 89.7917Z"/>
<path id="path2_stroke_2x" d="M 11.3226 2.14502L 6.46868 3.34461L 6.46868 3.34461L 11.3226 2.14502ZM 11.3226 89.7917L 6.32354 89.6971L 6.31599 90.0959L 6.37177 90.4908L 11.3226 89.7917ZM 13.9561 150.532L 18.9561 150.532L 18.9561 150.523L 18.9561 150.514L 13.9561 150.532ZM 6.31895 159.856L 4.33012 164.443L 4.33013 164.443L 6.31895 159.856ZM 3.07681 147.699L 8.0491 148.224L 8.0491 148.224L 3.07681 147.699ZM 1.05195 95.1198L -3.10942 92.3479L -3.93281 93.5841L -3.94779 95.0693L 1.05195 95.1198ZM 1.71152 29.9169L -3.24519 29.2604L 1.71152 29.9169ZM 1.31531 87.394L 6.31452 87.4828L 6.32 87.174L 6.28745 86.867L 1.31531 87.394ZM 6.46868 3.34461C 6.45471 3.28807 6.51736 3.59451 6.59169 4.54595C 6.65757 5.38921 6.71695 6.50822 6.76839 7.88705C 6.87105 10.639 6.93674 14.2753 6.97269 18.5118C 7.04452 26.9765 6.9967 37.7029 6.90051 48.2602C 6.80436 58.812 6.66012 69.172 6.53987 76.8956C 6.47976 80.7569 6.42565 83.9583 6.38659 86.1939C 6.36706 87.3117 6.35128 88.188 6.3404 88.7846C 6.33496 89.0829 6.33074 89.3113 6.32788 89.465C 6.32645 89.5418 6.32536 89.6 6.32464 89.6389C 6.32427 89.6583 6.324 89.6729 6.32381 89.6827C 6.32372 89.6875 6.32365 89.6912 6.32361 89.6936C 6.32358 89.6948 6.32357 89.6957 6.32356 89.6963C 6.32354 89.6968 6.32354 89.6971 11.3226 89.7917C 16.3218 89.8863 16.3218 89.8859 16.3218 89.8852C 16.3218 89.8846 16.3218 89.8836 16.3218 89.8823C 16.3219 89.8798 16.3219 89.876 16.322 89.871C 16.3222 89.861 16.3225 89.8461 16.3229 89.8264C 16.3236 89.787 16.3247 89.7283 16.3262 89.6509C 16.329 89.4961 16.3333 89.2665 16.3387 88.967C 16.3497 88.368 16.3655 87.4891 16.3851 86.3686C 16.4242 84.1276 16.4784 80.9198 16.5387 77.0512C 16.6591 69.315 16.8037 58.932 16.9001 48.3513C 16.9964 37.776 17.0449 26.9803 16.9723 18.4269C 16.9361 14.1544 16.8694 10.4076 16.7614 7.51425C 16.7076 6.0704 16.6421 4.80117 16.5613 3.76706C 16.489 2.84113 16.3831 1.7811 16.1766 0.945427L 6.46868 3.34461ZM 6.37177 90.4908C 6.29334 89.9355 6.34696 89.5263 6.34891 89.5088C 6.3516 89.4847 6.35964 89.4286 6.32505 89.658C 6.2811 89.9495 6.15756 90.7449 6.24549 91.6879C 6.34156 92.718 6.6815 93.9047 7.49028 95.0356C 8.27583 96.1339 9.30876 96.9071 10.3827 97.4503L 14.8961 88.5268C 14.9166 88.5372 15.2692 88.7221 15.6241 89.2183C 15.7985 89.4622 15.9392 89.7347 16.0395 90.0214C 16.1383 90.3037 16.1835 90.5582 16.2023 90.7593C 16.2354 91.114 16.1831 91.3489 16.2133 91.1491C 16.2165 91.1276 16.2198 91.1059 16.2248 91.0737C 16.2293 91.0447 16.2353 91.0052 16.2415 90.9641C 16.2533 90.8851 16.2713 90.7606 16.2871 90.6188C 16.3028 90.478 16.3216 90.2757 16.3273 90.0385C 16.3329 89.8041 16.3276 89.4756 16.2735 89.0925L 6.37177 90.4908ZM 10.3827 97.4503C 9.36071 96.9334 8.83348 96.2041 8.64304 95.9127C 8.42529 95.5796 8.32956 95.3234 8.30861 95.2665C 8.26686 95.1532 8.30401 95.2232 8.37193 95.6118C 8.50089 96.3496 8.6266 97.5504 8.73099 99.2514C 8.93708 102.61 9.02758 107.326 9.05496 112.893C 9.08224 118.44 9.04679 124.73 9.00972 131.21C 8.97272 137.677 8.93414 144.328 8.95618 150.549L 18.9561 150.514C 18.9343 144.347 18.9725 137.745 19.0096 131.267C 19.0466 124.801 19.0824 118.454 19.0548 112.844C 19.0274 107.256 18.9368 102.299 18.7122 98.6389C 18.6013 96.8309 18.4492 95.1866 18.2226 93.89C 18.1127 93.2613 17.9526 92.5168 17.6922 91.8099C 17.5619 91.4563 17.3515 90.9586 17.0135 90.4414C 16.7028 89.9661 16.0498 89.1103 14.8961 88.5268L 10.3827 97.4503ZM 8.95615 150.532C 8.95615 150.134 9.00803 149.837 9.02989 149.722C 9.05651 149.582 9.08306 149.486 9.0933 149.45C 9.11307 149.381 9.11629 149.384 9.07948 149.478C 9.00882 149.661 8.87265 149.974 8.66426 150.397C 8.24972 151.239 7.66004 152.292 7.00989 153.266C 6.32186 154.298 5.74284 154.974 5.39202 155.279C 5.21345 155.435 5.32041 155.293 5.70792 155.15C 6.16707 154.981 7.16866 154.774 8.30778 155.268L 4.33013 164.443C 6.1573 165.235 7.91359 164.995 9.16668 164.533C 10.3481 164.097 11.2883 163.404 11.9547 162.825C 13.2939 161.66 14.4521 160.13 15.3294 158.815C 16.2445 157.443 17.0481 156.008 17.6355 154.815C 17.9281 154.221 18.195 153.63 18.4023 153.096C 18.5044 152.833 18.6153 152.524 18.7079 152.2C 18.767 151.993 18.9561 151.333 18.9561 150.532L 8.95615 150.532ZM 8.30779 155.268C 7.61006 154.966 6.99897 154.765 6.53831 154.623C 5.96146 154.445 5.91059 154.438 5.77123 154.387C 5.7183 154.368 6.05617 154.478 6.46454 154.809C 6.93981 155.195 7.24948 155.661 7.41485 156.054C 7.61333 156.526 7.44299 156.532 7.49002 154.938C 7.53153 153.532 7.70943 151.437 8.0491 148.224L -1.89548 147.173C -2.2346 150.381 -2.45169 152.816 -2.50563 154.643C -2.55405 156.283 -2.5203 158.226 -1.80245 159.932C -1.37739 160.943 -0.729217 161.85 0.16535 162.576C 0.993006 163.247 1.83096 163.596 2.36086 163.788C 2.80434 163.949 3.41906 164.126 3.59252 164.179C 3.88217 164.269 4.10612 164.346 4.33012 164.443L 8.30779 155.268ZM 8.0491 148.224C 8.7713 141.393 8.16933 132.116 7.48407 122.846C 6.78143 113.341 5.96658 103.608 6.0517 95.1702L -3.94779 95.0693C -4.03824 104.036 -3.17515 114.298 -2.48872 123.583C -1.78491 133.104 -1.28666 141.414 -1.89548 147.173L 8.0491 148.224ZM 6.66824 30.5734C 8.46125 17.0354 10.4168 9.06921 11.9217 5.37435C 12.29 4.47014 12.5498 4.02973 12.6515 3.88446C 12.8854 3.55019 12.395 4.47616 10.9721 4.85745C 10.092 5.09326 9.09561 5.04526 8.17882 4.64663C 7.3476 4.28522 6.87033 3.76335 6.65987 3.49119C 6.30145 3.02767 6.33458 2.80199 6.46868 3.34461L 16.1766 0.945427C 15.9256 -0.0702101 15.4822 -1.44716 14.5706 -2.62603C 14.0836 -3.25588 13.3105 -4.02646 12.1663 -4.52399C 10.9364 -5.05874 9.60965 -5.13028 8.38376 -4.80179C 6.26918 -4.23516 5.02526 -2.65906 4.45865 -1.84947C 3.75977 -0.850901 3.17198 0.346246 2.66043 1.6022C 0.645988 6.548 -1.43386 15.5842 -3.24519 29.2604L 6.66824 30.5734ZM 5.21333 97.8916C 6.86436 95.4129 6.87919 93.0835 6.68565 91.3103C 6.49397 89.5541 6.28799 88.9772 6.31452 87.4828L -3.68391 87.3053C -3.72516 89.6296 -3.32022 91.8007 -3.25532 92.3953C -3.21171 92.7948 -3.24234 92.8092 -3.22092 92.6815C -3.20842 92.607 -3.18564 92.5224 -3.15354 92.4424C -3.12245 92.365 -3.09865 92.3318 -3.10942 92.3479L 5.21333 97.8916ZM 1.31531 87.394C 6.28745 86.867 6.28749 86.8674 6.28752 86.8676C 6.28751 86.8676 6.28753 86.8678 6.28752 86.8676C 6.28749 86.8674 6.28742 86.8667 6.2873 86.8656C 6.28706 86.8633 6.28663 86.8592 6.28601 86.8532C 6.28477 86.8414 6.28279 86.8223 6.2801 86.7961C 6.27473 86.7437 6.26652 86.6629 6.2558 86.5546C 6.23435 86.3381 6.20282 86.012 6.16364 85.5844C 6.08528 84.729 5.97638 83.4682 5.85638 81.8666C 5.61628 78.6623 5.3323 74.1012 5.15922 68.7006C 4.81196 57.865 4.9166 43.7989 6.66824 30.5734L -3.24519 29.2604C -5.0979 43.249 -5.19136 57.9214 -4.83565 69.0209C -4.65724 74.5878 -4.36446 79.2934 -4.11567 82.6138C -3.99123 84.2747 -3.87765 85.5907 -3.79465 86.4967C -3.75315 86.9497 -3.71927 87.3004 -3.69549 87.5405C -3.68359 87.6605 -3.67422 87.7529 -3.66768 87.8167C -3.66441 87.8486 -3.66184 87.8733 -3.66002 87.8908C -3.65911 87.8995 -3.65839 87.9064 -3.65785 87.9115C -3.65759 87.914 -3.65737 87.9161 -3.6572 87.9177C -3.65711 87.9185 -3.65702 87.9193 -3.65698 87.9198C -3.6569 87.9205 -3.65684 87.9211 1.31531 87.394Z"/>
<path id="path3_fill" d="M 141.022 0.499178L 141.102 0.468267C 145.479 -0.31996 157.063 -0.680292 168.377 4.18419C 182.52 10.2648 176.665 40.0982 186.887 49.9961C 194.617 57.4813 216.418 75.3389 221.244 93.3664C 225.909 110.793 208.007 155.013 194.305 155.524C 175.72 156.217 170.465 162.698 161.642 186.94C 153.525 209.246 127.861 194.591 104.735 190.318C 74.2832 184.692 69.8658 169.574 53.8879 164.982C 28.2635 157.618 24.2554 147.078 23.2452 125.796C 22.235 104.514 9.43916 109.919 3.37798 90.664C -2.68321 71.4087 -0.999549 50.4644 11.7963 46.0728C 24.5921 41.6813 57.5919 38.9788 55.5715 25.8041C 53.5511 12.6295 59.9491 -2.23423 87.5612 4.18419C 115.143 10.5956 116.853 9.92846 141.022 0.499178Z"/>
<path id="path4_fill" d="M 187.223 33.7812C 187.493 28.1059 191.152 31.4165 192.948 33.7812C 194.07 35.1324 197.123 38.7808 200.356 42.5643C 204.397 47.2936 197.662 47.6314 191.601 43.9155C 185.54 40.1996 186.887 40.8752 187.223 33.7812Z"/>
<path id="path5_stroke" d="M 141.102 0.468267L 140.659 -1.99216L 140.419 -1.94909L 140.193 -1.86076L 141.102 0.468267ZM 141.022 0.499178L 141.931 2.82821L 141.931 2.8282L 141.022 0.499178ZM 87.5612 4.18419L 88.1272 1.74912L 87.5612 4.18419ZM 53.8879 164.982L 54.5784 162.58L 53.8879 164.982ZM 104.735 190.318L 104.28 192.777L 104.28 192.777L 104.735 190.318ZM 161.642 186.94L 163.992 187.795L 163.992 187.795L 161.642 186.94ZM 194.305 155.524L 194.399 158.022L 194.305 155.524ZM 221.244 93.3664L 218.829 94.0129L 221.244 93.3664ZM 186.887 49.9961L 188.626 48.2001L 188.626 48.2001L 186.887 49.9961ZM 168.377 4.18419L 169.364 1.88748L 169.364 1.88748L 168.377 4.18419ZM 192.948 33.7812L 190.957 35.2932L 190.99 35.3366L 191.025 35.3786L 192.948 33.7812ZM 187.223 33.7812L 184.726 33.6626L 187.223 33.7812ZM 200.356 42.5643L 198.455 44.1882L 200.356 42.5643ZM 140.193 -1.86076L 140.114 -1.82985L 141.931 2.8282L 142.01 2.79729L 140.193 -1.86076ZM 140.114 -1.82985C 127.904 2.93353 121.822 5.28116 115.375 5.78969C 108.934 6.29776 102.001 4.97418 88.1272 1.74912L 86.9951 6.61927C 100.703 9.80563 108.416 11.3542 115.768 10.7742C 123.114 10.1947 129.971 7.4941 141.931 2.82821L 140.114 -1.82985ZM 88.1272 1.74912C 73.9507 -1.5462 64.4115 0.436765 58.7319 5.83463C 53.1027 11.1847 52.026 19.1766 53.1004 26.1831L 58.0427 25.4252C 57.0967 19.257 58.2088 13.2297 62.1764 9.4589C 66.0938 5.73585 73.5595 3.49617 86.9951 6.61927L 88.1272 1.74912ZM 53.1004 26.1831C 53.4073 28.1841 52.5238 30.0033 49.9192 31.8853C 47.2625 33.805 43.2606 35.4197 38.5234 36.8371C 33.8282 38.2418 28.6594 39.3838 23.7779 40.465C 18.9695 41.53 14.3476 42.5541 10.9848 43.7082L 12.6078 48.4374C 15.6429 47.3958 19.9444 46.4352 24.8592 45.3467C 29.7008 44.2743 35.0549 43.0938 39.9566 41.6272C 44.8163 40.1732 49.4852 38.3676 52.8476 35.938C 56.2622 33.4706 58.746 30.0115 58.0427 25.4252L 53.1004 26.1831ZM 10.9848 43.7082C 3.30274 46.3447 -0.63087 53.823 -1.95507 62.4136C -3.28991 71.0732 -2.12189 81.5181 0.99333 91.4146L 5.76262 89.9133C 2.81666 80.5545 1.79591 70.8996 2.98657 63.1754C 4.18786 55.3821 7.49401 50.1925 12.6078 48.4374L 10.9848 43.7082ZM 0.99333 91.4146C 4.25075 101.763 9.47155 105.632 13.523 109.319C 15.4945 111.113 17.1145 112.794 18.3449 115.182C 19.5761 117.57 20.5076 120.851 20.748 125.915L 25.7424 125.678C 25.4777 120.101 24.4309 116.076 22.7893 112.891C 21.147 109.704 18.9998 107.543 16.8884 105.621C 12.7741 101.877 8.56639 98.8204 5.76262 89.9133L 0.99333 91.4146ZM 20.748 125.915C 21.2545 136.585 22.5116 145.188 27.2851 152.038C 32.1006 158.949 40.1697 163.641 53.1974 167.385L 54.5784 162.58C 41.9817 158.96 35.2345 154.7 31.3873 149.179C 27.4982 143.598 26.2461 136.29 25.7424 125.678L 20.748 125.915ZM 53.1974 167.385C 60.6254 169.52 65.1794 173.989 72.407 179.28C 79.5465 184.506 88.6064 189.881 104.28 192.777L 105.189 187.86C 90.4112 185.13 82.0368 180.132 75.3603 175.245C 68.7719 170.422 63.1283 165.037 54.5784 162.58L 53.1974 167.385ZM 104.28 192.777C 109.924 193.82 115.739 195.499 121.565 197.137C 127.326 198.756 133.119 200.341 138.479 201.073C 143.824 201.803 149.052 201.734 153.573 199.772C 158.214 197.759 161.768 193.904 163.992 187.795L 159.293 186.085C 157.457 191.129 154.76 193.807 151.583 195.186C 148.287 196.616 144.131 196.799 139.155 196.119C 134.193 195.442 128.727 193.956 122.918 192.323C 117.174 190.708 111.108 188.954 105.189 187.86L 104.28 192.777ZM 163.992 187.795C 168.424 175.617 171.788 168.46 176.08 164.169C 180.175 160.077 185.383 158.358 194.399 158.022L 194.212 153.026C 184.643 153.382 177.93 155.251 172.546 160.633C 167.358 165.817 163.683 174.022 159.293 186.085L 163.992 187.795ZM 194.399 158.022C 196.771 157.934 199.02 156.913 201.05 155.449C 203.091 153.977 205.06 151.952 206.916 149.593C 210.629 144.873 214.108 138.539 216.966 131.759C 219.829 124.967 222.114 117.619 223.387 110.818C 224.648 104.086 224.97 97.6154 223.659 92.7199L 218.829 94.0129C 219.851 97.8306 219.685 103.423 218.472 109.898C 217.273 116.306 215.101 123.312 212.359 129.817C 209.611 136.335 206.338 142.241 202.986 146.501C 201.31 148.631 199.669 150.281 198.126 151.393C 196.573 152.513 195.265 152.986 194.212 153.026L 194.399 158.022ZM 223.659 92.7199C 221.083 83.0967 214.074 73.7546 206.997 66.038C 199.92 58.322 192.335 51.7914 188.626 48.2001L 185.148 51.7921C 189.169 55.686 196.35 61.8268 203.312 69.4177C 210.274 77.0082 216.579 85.6086 218.829 94.0129L 223.659 92.7199ZM 188.626 48.2001C 186.576 46.2151 185.168 43.0474 184.091 38.8906C 183.018 34.7472 182.377 30.0825 181.568 25.2462C 180.777 20.5214 179.827 15.6511 178.103 11.5472C 176.364 7.40815 173.714 3.75755 169.364 1.88748L 167.39 6.48091C 170.111 7.65114 172.033 10.0099 173.493 13.4842C 174.968 16.9935 175.845 21.3403 176.636 26.0712C 177.409 30.6905 178.105 35.72 179.251 40.1442C 180.393 44.555 182.087 48.8281 185.148 51.7921L 188.626 48.2001ZM 169.364 1.88748C 157.515 -3.20714 145.419 -2.84934 140.659 -1.99216L 141.545 2.9287C 145.539 2.20942 156.611 1.84656 167.39 6.48091L 169.364 1.88748ZM 194.939 32.2691C 194.421 31.5877 193.759 30.8228 193.03 30.1493C 192.343 29.5139 191.41 28.7842 190.345 28.4086C 189.789 28.2126 189.073 28.0686 188.284 28.1952C 187.445 28.3297 186.701 28.7429 186.127 29.3745C 185.106 30.5007 184.8 32.117 184.726 33.6626L 189.721 33.8997C 189.748 33.317 189.816 32.9532 189.875 32.7482C 189.936 32.5363 189.96 32.5914 189.83 32.7343C 189.666 32.9151 189.396 33.0807 189.075 33.1321C 188.804 33.1756 188.651 33.1129 188.681 33.1238C 188.709 33.1336 188.818 33.1802 189.008 33.3097C 189.191 33.4346 189.403 33.6058 189.637 33.8216C 190.108 34.2566 190.577 34.7923 190.957 35.2932L 194.939 32.2691ZM 184.726 33.6626C 184.644 35.3869 184.508 36.5467 184.421 37.6367C 184.344 38.6025 184.274 39.7607 184.632 40.8779C 185.034 42.132 185.845 42.9975 186.762 43.7229C 187.626 44.406 188.825 45.1459 190.294 46.0468L 192.908 41.7842C 191.347 40.8271 190.441 40.258 189.863 39.8011C 189.594 39.5883 189.474 39.4589 189.423 39.3943C 189.411 39.3793 189.404 39.3688 189.4 39.3624C 189.396 39.356 189.394 39.3528 189.394 39.3524C 189.393 39.352 189.394 39.3527 189.394 39.3538C 189.395 39.355 189.394 39.3548 189.394 39.3523C 189.373 39.2872 189.324 39.0519 189.405 38.0331C 189.476 37.1384 189.634 35.7225 189.721 33.8997L 184.726 33.6626ZM 190.294 46.0468C 193.584 48.0637 197.346 49.1857 200.038 48.8921C 201.278 48.7569 203.417 48.1388 203.972 45.8929C 204.22 44.8889 204.017 43.9346 203.694 43.1654C 203.37 42.3938 202.864 41.6509 202.257 40.9403L 198.455 44.1882C 198.858 44.6599 199.025 44.9621 199.083 45.0998C 199.142 45.2397 199.028 45.0587 199.118 44.6933C 199.357 43.7248 200.191 43.8457 199.496 43.9216C 198.315 44.0503 195.679 43.4832 192.908 41.7842L 190.294 46.0468ZM 202.257 40.9403C 199.033 37.167 195.987 33.5276 194.871 32.1837L 191.025 35.3786C 192.153 36.7372 195.214 40.3946 198.455 44.1882L 202.257 40.9403Z"/>
<path id="path6_fill" d="M 41.5176 30.3944C 43.6143 21.5046 48.0596 9.55086 52.6323 6.58752C 67.6426 -3.13977 83.7201 0.332031 93.9724 1.93094C 104.225 3.52985 101.286 18.2154 108.524 28.6337C 113.501 35.7969 110.125 37.9224 105.548 37.9224C 102.143 37.9223 101.799 40.4657 101.91 42.235C 102.181 43.8119 100.749 45.6207 100.587 47.5428C 100.309 50.8363 100.957 53.4675 98.9332 56.8315C 97.8516 58.6289 95.6842 60.2508 93.9724 61.8076C 92.0875 63.5216 90.4543 66.2561 87.6887 67.4471C 85.5693 68.3598 83.1129 69.953 80.4128 70.4328C 77.997 70.8621 74.0752 71.0963 71.1527 71.0963C 68.0533 71.0963 64.5311 70.1376 61.8925 70.4328C 58.5762 70.8038 55.28 72.3582 52.6323 73.0867C 49.1543 74.0436 47.8127 75.7355 45.3565 77.0676C 42.6738 77.8864 40.8372 77.7311 38.7421 80.0532C 36.7558 83.6659 35.9957 86.02 34.7734 86.688C 33.0522 87.6288 34.1621 91.5276 33.7813 95.3132C 34.4427 102.028 33.8052 102.469 33.4506 104.27C 32.0671 113.689 37.3191 109.01 23.1982 107.588C 17.1578 106.979 11.9537 103.275 5.33934 94.6497C -1.27507 86.0245 -2.26723 66.1202 5.33934 52.8506C 12.9459 39.581 30.4741 38.5858 37.4192 38.5858C 39.2666 38.5858 69.5345 40.5433 72.6558 39.2434C 75.777 37.9436 75.7311 35.0113 73.4246 33.8571C 71.1181 32.7028 40.6152 34.2203 41.5176 30.3944Z"/>
<path id="path7_stroke_2x" d="M 52.6323 6.58752L 53.72 8.26591L 53.72 8.26591L 52.6323 6.58752ZM 41.5176 30.3944L 43.4642 30.8535L 43.4642 30.8535L 41.5176 30.3944ZM 5.33934 52.8506L 3.6042 51.856L 3.6042 51.856L 5.33934 52.8506ZM 5.33934 94.6497L 3.75228 95.8668L 3.75228 95.8668L 5.33934 94.6497ZM 23.1982 107.588L 22.9978 109.577L 22.9978 109.577L 23.1982 107.588ZM 101.91 42.235L 99.9135 42.3593L 99.9203 42.4672L 99.9386 42.5738L 101.91 42.235ZM 105.548 37.9224L 105.548 39.9224L 105.548 39.9224L 105.548 37.9224ZM 108.524 28.6337L 110.167 27.4925L 110.167 27.4925L 108.524 28.6337ZM 93.9724 1.93094L 93.6642 3.90705L 93.6642 3.90705L 93.9724 1.93094ZM 34.7734 86.688L 33.8142 84.9331L 33.8142 84.9331L 34.7734 86.688ZM 38.7421 80.0532L 37.2571 78.7135L 37.1015 78.886L 36.9895 79.0897L 38.7421 80.0532ZM 45.3565 77.0676L 45.9404 78.9805L 46.133 78.9217L 46.31 78.8257L 45.3565 77.0676ZM 52.6323 73.0867L 53.1629 75.0151L 53.1629 75.0151L 52.6323 73.0867ZM 61.8925 70.4328L 62.1148 72.4204L 62.1148 72.4204L 61.8925 70.4328ZM 80.4128 70.4328L 80.7628 72.402L 80.7628 72.402L 80.4128 70.4328ZM 87.6887 67.4471L 86.8976 65.6102L 86.8976 65.6102L 87.6887 67.4471ZM 93.9724 61.8076L 92.6268 60.3279L 92.6268 60.3279L 93.9724 61.8076ZM 98.9332 56.8315L 97.2195 55.8003L 97.2195 55.8003L 98.9332 56.8315ZM 100.587 47.5428L 98.5938 47.3749L 98.5938 47.3749L 100.587 47.5428ZM 33.7813 95.3132L 31.7913 95.113L 31.7714 95.3111L 31.7909 95.5093L 33.7813 95.3132ZM 33.4506 104.27L 31.4882 103.884L 31.4788 103.931L 31.4718 103.98L 33.4506 104.27ZM 73.4246 33.8571L 74.3196 32.0685L 74.3196 32.0685L 73.4246 33.8571ZM 72.6558 39.2434L 73.4247 41.0897L 73.4247 41.0897L 72.6558 39.2434ZM 51.5447 4.90913C 50.0564 5.87356 48.7379 7.44774 47.5858 9.21532C 46.4129 11.0149 45.3126 13.1722 44.3125 15.4706C 42.3121 20.0682 40.6418 25.3953 39.571 29.9353L 43.4642 30.8535C 44.4901 26.5037 46.0909 21.4091 47.9804 17.0665C 48.9253 14.8949 49.9247 12.9524 50.9369 11.3994C 51.97 9.81445 52.9218 8.78315 53.72 8.26591L 51.5447 4.90913ZM 37.4192 36.5858C 33.8691 36.5858 27.5199 36.837 21.0393 38.8305C 14.5537 40.8256 7.74753 44.628 3.6042 51.856L 7.07447 53.8452C 10.5377 47.8037 16.2989 44.4737 22.2153 42.6537C 28.1367 40.8323 34.0242 40.5858 37.4192 40.5858L 37.4192 36.5858ZM 3.6042 51.856C -0.417177 58.8712 -2.12166 67.5389 -1.99327 75.524C -1.86566 83.4601 0.0816923 91.0803 3.75228 95.8668L 6.9264 93.4327C 3.98258 89.5939 2.12665 82.9493 2.00622 75.4596C 1.88657 68.0188 3.48929 60.0996 7.07447 53.8452L 3.6042 51.856ZM 3.75228 95.8668C 10.4691 104.626 16.1175 108.885 22.9978 109.577L 23.3986 105.598C 18.1982 105.074 13.4384 101.924 6.9264 93.4327L 3.75228 95.8668ZM 103.906 42.1106C 103.857 41.335 103.947 40.7513 104.14 40.4195C 104.214 40.2922 104.305 40.1978 104.453 40.12C 104.616 40.0348 104.943 39.9224 105.548 39.9224L 105.548 35.9224C 103.263 35.9223 101.597 36.8326 100.681 38.4109C 99.8783 39.793 99.8516 41.3657 99.9135 42.3593L 103.906 42.1106ZM 110.167 27.4925C 106.799 22.6455 105.834 16.8865 104.304 11.4347C 103.57 8.8191 102.675 6.21055 101.173 4.1387C 99.6011 1.97131 97.4036 0.441883 94.2806 -0.0451733L 93.6642 3.90705C 95.6673 4.21945 96.9471 5.1253 97.9342 6.48672C 98.9906 7.94367 99.7352 9.95745 100.453 12.5153C 101.826 17.4107 103.011 24.2035 106.882 29.7748L 110.167 27.4925ZM 94.2806 -0.0451733C 84.2057 -1.61641 67.3068 -5.30537 51.5447 4.90913L 53.72 8.26591C 67.9785 -0.974179 83.2344 2.28047 93.6642 3.90705L 94.2806 -0.0451733ZM 35.7327 88.443C 36.3908 88.0832 36.8728 87.5609 37.2384 87.066C 37.605 86.5699 37.9331 85.9919 38.2413 85.406C 38.9232 84.1097 39.4839 82.8551 40.4947 81.0168L 36.9895 79.0897C 36.014 80.864 35.2015 82.5928 34.7012 83.5437C 34.4183 84.0815 34.2031 84.443 34.0213 84.689C 33.8386 84.9363 33.7672 84.9588 33.8142 84.9331L 35.7327 88.443ZM 40.227 81.393C 41.8298 79.6165 42.6853 79.974 45.9404 78.9805L 44.7726 75.1547C 42.6622 75.7989 39.8446 75.8456 37.2571 78.7135L 40.227 81.393ZM 46.31 78.8257C 47.6275 78.1111 48.826 77.1895 49.7109 76.607C 50.668 75.977 51.6808 75.4228 53.1629 75.0151L 52.1018 71.1584C 50.1058 71.7075 48.7089 72.4778 47.5116 73.2659C 46.2422 74.1015 45.5417 74.6919 44.403 75.3095L 46.31 78.8257ZM 53.1629 75.0151C 54.5526 74.6327 56.2028 74.0062 57.6473 73.522C 59.1811 73.0079 60.6724 72.5818 62.1148 72.4204L 61.6702 68.4452C 59.7963 68.6548 57.9814 69.1913 56.3761 69.7294C 54.6816 70.2973 53.3598 70.8123 52.1018 71.1584L 53.1629 75.0151ZM 62.1148 72.4204C 63.1608 72.3034 64.4695 72.4313 66.098 72.6379C 67.6305 72.8324 69.4438 73.0963 71.1527 73.0963L 71.1527 69.0963C 69.7622 69.0963 68.2646 68.8808 66.6016 68.6698C 65.0345 68.4709 63.2629 68.267 61.6702 68.4452L 62.1148 72.4204ZM 71.1527 73.0963C 74.1331 73.0963 78.1848 72.8601 80.7628 72.402L 80.0629 68.4636C 77.8092 68.8641 74.0173 69.0963 71.1527 69.0963L 71.1527 73.0963ZM 80.7628 72.402C 82.3709 72.1162 83.8471 71.5109 85.12 70.912C 86.5327 70.2473 87.4186 69.741 88.4797 69.2841L 86.8976 65.6102C 85.8394 66.066 84.4374 66.8126 83.4171 67.2926C 82.2569 67.8384 81.1549 68.2696 80.0629 68.4636L 80.7628 72.402ZM 88.4797 69.2841C 90.2365 68.5275 91.5605 67.3121 92.6142 66.1975C 93.1344 65.6473 93.6421 65.0619 94.0752 64.5775C 94.5295 64.0695 94.9277 63.6422 95.318 63.2872L 92.6268 60.3279C 92.0747 60.83 91.5619 61.3873 91.0934 61.9113C 90.6037 62.4589 90.1769 62.953 89.7075 63.4495C 88.782 64.4285 87.9065 65.1758 86.8976 65.6102L 88.4797 69.2841ZM 95.318 63.2872C 95.7237 62.9183 96.1584 62.5437 96.6269 62.138C 97.0869 61.7396 97.5751 61.315 98.0477 60.8775C 98.9753 60.019 99.9567 59.0096 100.647 57.8627L 97.2195 55.8003C 96.8281 56.4508 96.1851 57.1511 95.3306 57.942C 94.9122 58.3293 94.4699 58.7145 94.0083 59.1142C 93.5552 59.5066 93.077 59.9185 92.6268 60.3279L 95.318 63.2872ZM 100.647 57.8627C 101.851 55.8623 102.263 54.0517 102.408 52.3288C 102.478 51.4998 102.486 50.6831 102.496 49.9365C 102.506 49.169 102.517 48.4538 102.58 47.7106L 98.5938 47.3749C 98.5177 48.2786 98.506 49.1273 98.4962 49.8846C 98.4861 50.6627 98.4779 51.3316 98.4221 51.9926C 98.3161 53.2497 98.0401 54.4367 97.2195 55.8003L 100.647 57.8627ZM 102.58 47.7107C 102.631 47.1062 102.884 46.4944 103.276 45.4815C 103.59 44.6693 104.124 43.3122 103.881 41.8962L 99.9386 42.5738C 99.9662 42.7346 99.9198 43.0704 99.5455 44.0374C 99.2488 44.8037 98.7048 46.0573 98.5938 47.3749L 102.58 47.7107ZM 35.7712 95.5134C 35.9756 93.4816 35.7871 91.2398 35.7746 89.915C 35.7675 89.1603 35.8078 88.6884 35.8822 88.4007C 35.9485 88.1439 35.9658 88.3156 35.7327 88.443L 33.8142 84.9331C 32.7205 85.5309 32.231 86.5427 32.0094 87.3998C 31.7959 88.2261 31.7672 89.1418 31.7748 89.9526C 31.7918 91.7588 31.9678 93.3593 31.7913 95.113L 35.7712 95.5134ZM 35.4129 104.657C 35.4891 104.27 35.5644 104.026 35.6858 103.538C 35.8005 103.076 35.9136 102.546 35.9864 101.839C 36.1281 100.464 36.1066 98.5176 35.7716 95.1172L 31.7909 95.5093C 32.1174 98.8237 32.1078 100.455 32.0075 101.429C 31.9592 101.898 31.8878 102.235 31.8039 102.573C 31.7267 102.883 31.5893 103.37 31.4882 103.884L 35.4129 104.657ZM 22.9978 109.577C 26.4052 109.921 28.583 110.454 29.9457 110.896C 30.6258 111.117 31.1189 111.32 31.4798 111.478C 31.7127 111.58 31.7712 111.609 31.9764 111.7C 32.0949 111.752 32.3302 111.857 32.5755 111.924C 32.6918 111.955 33.5951 112.226 34.445 111.606C 35.2917 110.989 35.3137 110.05 35.3195 109.934C 35.332 109.683 35.3065 109.43 35.2945 109.306C 35.2763 109.119 35.2619 108.997 35.2428 108.784C 35.1778 108.057 35.109 106.742 35.4293 104.561L 31.4718 103.98C 31.1005 106.508 31.1693 108.14 31.2587 109.14C 31.2783 109.359 31.3034 109.592 31.3132 109.693C 31.3292 109.857 31.32 109.823 31.3245 109.734C 31.327 109.683 31.3376 109.507 31.4145 109.283C 31.4983 109.039 31.687 108.667 32.0891 108.374C 32.4918 108.08 32.9049 108.014 33.1654 108.01C 33.4041 108.006 33.5762 108.051 33.6265 108.064C 33.7155 108.089 33.7447 108.108 33.5947 108.042C 33.5315 108.014 33.2591 107.89 33.0859 107.815C 32.6346 107.617 32.0149 107.362 31.18 107.091C 29.5128 106.55 27.0517 105.966 23.3986 105.598L 22.9978 109.577ZM 105.548 39.9224C 106.824 39.9224 108.139 39.777 109.309 39.3645C 110.486 38.9495 111.659 38.2085 112.366 36.9368C 113.082 35.6501 113.138 34.1523 112.739 32.6065C 112.345 31.0836 111.483 29.3869 110.167 27.4925L 106.882 29.7748C 108.054 31.4621 108.636 32.7173 108.866 33.6075C 109.09 34.475 108.949 34.8516 108.871 34.9917C 108.785 35.1467 108.567 35.3848 107.979 35.5922C 107.384 35.802 106.56 35.9224 105.548 35.9224L 105.548 39.9224ZM 39.571 29.9353C 39.3429 30.9025 39.6692 31.7651 40.1967 32.3681C 40.6535 32.8902 41.2467 33.2151 41.7377 33.4286C 42.7404 33.8643 44.0817 34.1529 45.5024 34.3652C 48.3983 34.798 52.3024 35.005 56.2055 35.1266C 60.0936 35.2478 64.1834 35.2883 67.2888 35.3665C 68.8693 35.4063 70.2067 35.4558 71.2096 35.5286C 71.7129 35.5651 72.0998 35.6053 72.3755 35.6473C 72.725 35.7004 72.6959 35.7288 72.5296 35.6456L 74.3196 32.0685C 73.865 31.841 73.3273 31.746 72.977 31.6927C 72.553 31.6282 72.0489 31.579 71.4992 31.5391C 70.396 31.459 68.9789 31.4078 67.3895 31.3677C 64.1552 31.2863 60.2431 31.2505 56.3301 31.1286C 52.4319 31.0071 48.7353 30.8039 46.0936 30.4091C 44.7456 30.2077 43.8338 29.9781 43.3321 29.76C 43.0709 29.6465 43.099 29.6107 43.2071 29.7341C 43.3858 29.9384 43.5795 30.3645 43.4642 30.8535L 39.571 29.9353ZM 72.5296 35.6456C 73.0649 35.9135 73.0919 36.2212 73.0831 36.3225C 73.0741 36.4267 72.9599 36.9503 71.8869 37.3971L 73.4247 41.0897C 75.4729 40.2367 76.8964 38.6442 77.0681 36.6688C 77.24 34.6904 76.0909 32.9549 74.3196 32.0685L 72.5296 35.6456ZM 71.8869 37.3971C 71.9332 37.3778 71.8377 37.4189 71.479 37.4709C 71.1591 37.5173 70.7318 37.5587 70.1961 37.5923C 69.1269 37.6593 67.7289 37.6894 66.0935 37.689C 62.8283 37.6883 58.7259 37.5668 54.6396 37.4037C 46.5777 37.0818 38.3866 36.5858 37.4192 36.5858L 37.4192 40.5858C 38.2992 40.5858 46.1657 41.0686 54.48 41.4005C 58.5818 41.5642 62.747 41.6883 66.0926 41.689C 67.7627 41.6894 69.2559 41.6591 70.4465 41.5844C 71.0409 41.5472 71.5857 41.4973 72.053 41.4295C 72.4815 41.3674 72.9882 41.2715 73.4247 41.0897L 71.8869 37.3971Z"/>
<path id="path8_fill" d="M 0.963202 3.03714C -0.803865 1.21486 0.0796681 0.303714 1.84674 0C 2.73027 0 2.73027 0 3.90831 0.607428C 5.08636 1.21486 4.49734 2.126 4.20282 3.64457C 3.90831 5.16314 2.73027 4.85942 0.963202 3.03714Z"/>
<path id="path9_stroke_2x" d="M 1.84674 0L 1.84674 -2L 1.67611 -2L 1.50795 -1.9711L 1.84674 0ZM 0.963202 3.03714L 2.399 1.64484L 2.399 1.64484L 0.963202 3.03714ZM 4.20282 3.64457L 2.23941 3.26378L 2.23941 3.26378L 4.20282 3.64457ZM 3.90831 0.607428L 4.82489 -1.17018L 4.82489 -1.17018L 3.90831 0.607428ZM 1.50795 -1.9711C 0.948625 -1.87496 0.346073 -1.71372 -0.201868 -1.43118C -0.744812 -1.15123 -1.38669 -0.670382 -1.74584 0.132092C -2.52781 1.87929 -1.40106 3.47196 -0.472597 4.42943L 2.399 1.64484C 2.23413 1.47483 2.12429 1.34002 2.05377 1.24039C 1.98239 1.13956 1.96355 1.09202 1.96519 1.09613C 1.96756 1.1021 1.99668 1.17746 1.99974 1.30872C 2.003 1.44812 1.97551 1.60897 1.90518 1.76612C 1.76691 2.07506 1.5668 2.15728 1.63128 2.12403C 1.65446 2.11208 1.71041 2.08688 1.80913 2.05696C 1.90655 2.02743 2.03138 1.99759 2.18552 1.9711L 1.50795 -1.9711ZM -0.472597 4.42943C 0.0201405 4.93757 0.515917 5.38641 1.00704 5.73901C 1.47531 6.07521 2.06299 6.41462 2.73123 6.55244C 3.47381 6.7056 4.3837 6.60982 5.13583 5.95351C 5.79464 5.37864 6.05327 4.60786 6.16624 4.02535L 2.23941 3.26378C 2.20512 3.44056 2.20606 3.20127 2.50593 2.93961C 2.67166 2.795 2.87847 2.69064 3.09863 2.64387C 3.30642 2.59972 3.46441 2.61947 3.53922 2.6349C 3.65524 2.65883 3.59868 2.67554 3.33988 2.48973C 3.10393 2.32033 2.7898 2.04785 2.399 1.64484L -0.472597 4.42943ZM 6.16624 4.02535C 6.22604 3.71702 6.29842 3.44918 6.38534 3.10645C 6.45998 2.81216 6.56909 2.37746 6.60224 1.93309C 6.63783 1.45588 6.60077 0.814515 6.24961 0.168986C 5.89781 -0.477746 5.35845 -0.895064 4.82489 -1.17018L 2.99174 2.38503C 3.0472 2.41363 2.87598 2.33799 2.73585 2.08039C 2.59638 1.824 2.61454 1.61923 2.61332 1.63555C 2.60965 1.68472 2.58992 1.80049 2.50809 2.12312C 2.43855 2.39731 2.32687 2.81282 2.23941 3.26378L 6.16624 4.02535ZM 4.82489 -1.17018C 4.32279 -1.42908 3.81942 -1.69902 3.33234 -1.84253C 2.74558 -2.01542 2.21795 -2 1.84674 -2L 1.84674 2C 2.35906 2 2.27319 2.01542 2.20182 1.99439C 2.1844 1.98925 2.21414 1.99561 2.35392 2.06214C 2.49793 2.13068 2.68587 2.22732 2.99174 2.38504L 4.82489 -1.17018Z"/>
<path id="path10_fill" d="M 3.33815 2.98565C -2.42188 1.14631 0.582145 0 2.67671 0C 9.3337 0.693766 13.5783 3.79669 17.2284 9.2887C 19.2127 12.2744 18.8717 14.7252 15.2441 10.9474C 9.34487 4.80392 7.78286 4.40498 3.33815 2.98565Z"/>
<path id="path11_fill" d="M 3.34001 2.984C -2.42323 1.14567 0.58247 0 2.6782 0C 9.3389 0.693381 13.5859 3.79459 17.238 9.28355C 19.2234 12.2675 18.8822 14.7171 15.2526 10.9413C 9.35008 4.80125 7.7872 4.40253 3.34001 2.984Z"/>
<path id="path12_fill" d="M 76.5 0.0901478C 75.3424 0.0901478 74.9123 -0.384621 72.0145 0.844935C 69.1167 2.07449 69.6551 2.8673 68.7539 5.66704C 68.0195 9.55117 67.9691 13.5894 66.5279 17.324C 65.7392 19.3678 64.264 21.111 62.6507 22.5654C 61.1664 23.9035 59.8445 25.3742 58.3869 26.7376C 55.3182 29.6077 51.393 31.5427 47.3928 32.7966C 45.5118 33.3863 43.4353 33.3724 41.4986 33.6667C 39.0459 34.0395 36.6786 33.9958 34.1936 34.0651C 30.1258 34.1784 27.1597 33.3528 23.32 34.6367C 21.1207 35.372 19.0913 35.2987 17.0363 36.3294C 15.6906 37.0043 13.9506 38.4106 12.7369 39.296C 11.1825 40.43 8.82522 41.2351 7.11467 42.1054C 5.3412 43.0078 4.47936 46.6612 3.01931 48.0387C 2.26844 48.7471 1.78857 48.8023 1.65027 49.8967C 1.5309 50.8413 1.2845 52.3706 1.2845 53.322C 1.2845 56.5616 1.47261 59.7872 1.47261 63.0291C 1.47261 64.9877 1.29084 66.6767 0.845572 68.5851C 0.54447 69.8755 0 76.0221 0 77.34C 0 82.1526 0.562522 83.8367 1.38901 88.4974C 1.89281 91.3385 3.45979 95.083 4.99748 97.3464C 6.53517 99.6098 10.2619 103.754 15.2152 104.227C 22.1526 104.889 29.6005 109.273 35.3668 110.043C 41.1332 110.812 44.6652 107.117 47.3928 105.629C 50.1204 104.141 50.4689 102.522 52.6658 100.809C 58.3115 96.4082 56.8945 94.5991 56.8945 87.3432C 56.8945 85.5227 59.3684 79.915 59.3684 78.0945C 59.3684 75.0115 62.6525 73.1586 63.4296 70.7994C 64.2068 68.4402 41.1332 68.1062 40.7487 68.1062C 40.3643 68.1062 38.3395 64.982 41.5176 64.2588C 46.3508 63.1591 58.8651 63.7242 65.3518 64.6436C 76.1038 66.1675 99.1809 58.5356 101.872 55.0251C 104.563 51.5147 107.338 48.7537 109.945 42.7134C 112.552 36.6732 113.405 30.8917 113.405 27.7086C 113.405 24.5255 113.234 19.2443 111.953 17.324C 110.672 15.4036 106.869 10.8677 104.947 9.62586C 103.025 8.38398 102.127 6.4845 97.0706 5.1119C 92.0146 3.7393 94.0119 3.63541 89.9548 1.93107C 85.8976 0.226732 81.4923 0.174074 78.9328 0.278862C 77.7466 0.327427 77.7109 0.0901478 76.5 0.0901478Z"/>
<path id="path13_stroke_2x" d="M 72.0145 0.844935L 71.2333 -0.996187L 72.0145 0.844935ZM 78.9328 0.278862L 78.851 -1.71946L 78.851 -1.71946L 78.9328 0.278862ZM 89.9548 1.93107L 89.1802 3.77498L 89.1802 3.77498L 89.9548 1.93107ZM 104.947 9.62586L 106.033 7.94599L 106.033 7.94598L 104.947 9.62586ZM 63.4296 70.7994L 61.5301 70.1737L 61.5301 70.1737L 63.4296 70.7994ZM 52.6658 100.809L 51.4362 99.2317L 51.4362 99.2317L 52.6658 100.809ZM 15.2152 104.227L 15.4054 102.236L 15.4054 102.236L 15.2152 104.227ZM 4.99748 97.3464L 6.65182 96.2225L 6.65182 96.2225L 4.99748 97.3464ZM 1.38901 88.4974L -0.580271 88.8466L -0.580271 88.8466L 1.38901 88.4974ZM 0.845572 68.5851L -1.10211 68.1306L -1.10211 68.1306L 0.845572 68.5851ZM 1.65027 49.8967L -0.333947 49.6459L -0.333947 49.6459L 1.65027 49.8967ZM 3.01931 48.0387L 1.64679 46.584L 1.64679 46.584L 3.01931 48.0387ZM 7.11467 42.1054L 8.02163 43.8879L 8.02163 43.8879L 7.11467 42.1054ZM 12.7369 39.296L 13.9156 40.9118L 13.9156 40.9117L 12.7369 39.296ZM 17.0363 36.3294L 16.1397 34.5416L 16.1396 34.5416L 17.0363 36.3294ZM 23.32 34.6367L 22.6858 32.7399L 22.6858 32.7399L 23.32 34.6367ZM 34.1936 34.0651L 34.2493 36.0643L 34.2493 36.0643L 34.1936 34.0651ZM 41.4986 33.6667L 41.7991 35.644L 41.7991 35.644L 41.4986 33.6667ZM 47.3928 32.7966L 46.7945 30.8882L 46.7945 30.8882L 47.3928 32.7966ZM 58.3869 26.7376L 59.753 28.1982L 59.753 28.1982L 58.3869 26.7376ZM 62.6507 22.5654L 63.9899 24.0509L 63.9899 24.0509L 62.6507 22.5654ZM 66.5279 17.324L 68.3938 18.044L 68.3938 18.044L 66.5279 17.324ZM 68.7539 5.66704L 66.8501 5.05421C 66.8246 5.13328 66.8041 5.21386 66.7887 5.29548L 68.7539 5.66704ZM 101.872 55.0251L 100.285 53.8083L 100.285 53.8083L 101.872 55.0251ZM 65.3518 64.6436L 65.6324 62.6634L 65.6324 62.6634L 65.3518 64.6436ZM 109.945 42.7134L 111.781 43.506L 111.781 43.506L 109.945 42.7134ZM 41.5176 64.2588L 41.0738 62.3087L 41.0738 62.3087L 41.5176 64.2588ZM 72.7957 2.68606C 74.1433 2.11428 74.7341 2.01971 75.0236 2.00322C 75.1701 1.99487 75.2973 2.00265 75.5156 2.02488C 75.7213 2.04584 76.0848 2.09015 76.5 2.09015L 76.5 -1.90985C 76.3364 -1.90985 76.212 -1.92489 75.9209 -1.95453C 75.6425 -1.98289 75.264 -2.01696 74.7961 -1.9903C 73.8566 -1.93679 72.7835 -1.65396 71.2333 -0.996187L 72.7957 2.68606ZM 76.5 2.09015C 76.9326 2.09015 77.1107 2.12615 77.3856 2.17359C 77.7868 2.24283 78.2399 2.30891 79.0146 2.27719L 78.851 -1.71946C 78.4396 -1.70262 78.2817 -1.7309 78.0658 -1.76815C 77.7235 -1.82721 77.2783 -1.90985 76.5 -1.90985L 76.5 2.09015ZM 79.0146 2.27719C 81.4957 2.17561 85.5393 2.24551 89.1802 3.77498L 90.7294 0.0871599C 86.2559 -1.79205 81.4888 -1.82746 78.851 -1.71946L 79.0146 2.27719ZM 96.5466 7.04204C 101.23 8.3136 101.311 9.65745 103.862 11.3057L 106.033 7.94598C 104.739 7.11051 103.023 4.6554 97.5946 3.18176L 96.5466 7.04204ZM 61.5301 70.1737C 61.4368 70.4568 61.2375 70.8096 60.8699 71.2975C 60.4649 71.835 60.0978 72.2387 59.5481 72.9234C 58.5997 74.1046 57.3684 75.8118 57.3684 78.0945L 61.3684 78.0945C 61.3684 77.2942 61.7793 76.5335 62.6671 75.4277C 63.0356 74.9689 63.6352 74.2743 64.0645 73.7046C 64.5313 73.0852 65.0339 72.3217 65.3292 71.4252L 61.5301 70.1737ZM 57.3684 78.0945C 57.3684 78.2333 57.296 78.6737 57.0591 79.5012C 56.8413 80.2621 56.5469 81.1472 56.2339 82.0869C 55.9284 83.0042 55.6043 83.9762 55.3583 84.8356C 55.1313 85.6285 54.8945 86.5717 54.8945 87.3432L 58.8945 87.3432C 58.8945 87.2044 58.9669 86.764 59.2038 85.9365C 59.4216 85.1756 59.716 84.2906 60.029 83.3508C 60.3345 82.4335 60.6586 81.4615 60.9046 80.6021C 61.1316 79.8092 61.3684 78.866 61.3684 78.0945L 57.3684 78.0945ZM 51.4362 99.2317C 50.1452 100.238 49.348 101.271 48.7217 101.988C 48.1072 102.692 47.5173 103.283 46.435 103.873L 48.3505 107.385C 49.9959 106.487 50.944 105.524 51.7349 104.619C 52.5141 103.726 52.9896 103.093 53.8954 102.386L 51.4362 99.2317ZM 46.435 103.873C 45.6467 104.303 44.8102 104.887 44.0543 105.397C 43.2578 105.935 42.4597 106.458 41.5949 106.909C 39.9007 107.792 37.9943 108.376 35.6314 108.06L 35.1023 112.025C 38.5057 112.479 41.2485 111.6 43.4438 110.456C 44.5236 109.893 45.4804 109.261 46.2935 108.712C 47.1471 108.135 47.775 107.699 48.3505 107.385L 46.435 103.873ZM 35.6314 108.06C 33.0249 107.713 29.979 106.533 26.4235 105.219C 22.9979 103.953 19.1697 102.595 15.4054 102.236L 15.025 106.218C 18.1981 106.521 21.5625 107.687 25.0369 108.971C 28.3813 110.207 31.9424 111.604 35.1023 112.025L 35.6314 108.06ZM 6.65182 96.2225C 5.26666 94.1836 3.81108 90.7017 3.35828 88.1482L -0.580271 88.8466C -0.0254561 91.9754 1.65292 95.9824 3.34314 98.4703L 6.65182 96.2225ZM 2 77.34C 2 76.7915 2.12549 75.022 2.30123 73.138C 2.48006 71.2209 2.68093 69.5209 2.79326 69.0395L -1.10211 68.1306C -1.29089 68.9397 -1.5128 70.9582 -1.68148 72.7665C -1.85325 74.6079 -2 76.5706 -2 77.34L 2 77.34ZM 2.79326 69.0395C 3.27535 66.9733 3.47261 65.1313 3.47261 63.0291L -0.527389 63.0291C -0.527389 64.8441 -0.693669 66.3801 -1.10211 68.1306L 2.79326 69.0395ZM 3.47261 63.0291C 3.47261 61.3743 3.4246 59.7283 3.37771 58.1165C 3.33054 56.4951 3.2845 54.9079 3.2845 53.322L -0.715501 53.322C -0.715501 54.9757 -0.667487 56.6211 -0.620599 58.2329C -0.573432 59.8542 -0.527389 61.4421 -0.527389 63.0291L 3.47261 63.0291ZM 3.2845 53.322C 3.2845 52.5383 3.49591 51.244 3.63449 50.1474L -0.333947 49.6459C -0.434111 50.4386 -0.715501 52.2029 -0.715501 53.322L 3.2845 53.322ZM 3.63449 50.1474C 3.65169 50.0113 3.66763 50.0051 3.64236 50.0615C 3.60978 50.1343 3.56361 50.1917 3.54324 50.2128C 3.54043 50.2157 3.55036 50.2051 3.58703 50.174C 3.62692 50.1401 3.67424 50.1021 3.75562 50.0372C 3.90749 49.916 4.13725 49.7336 4.39182 49.4934L 1.64679 46.584C 1.52592 46.698 1.41413 46.7882 1.26052 46.9108C 1.13065 47.0144 0.888813 47.2035 0.666912 47.4331C 0.0865558 48.0336 -0.220171 48.7456 -0.333947 49.6459L 3.63449 50.1474ZM 4.39182 49.4934C 4.97724 48.9411 5.4225 48.2454 5.76313 47.6481C 6.10395 47.0505 6.44604 46.3539 6.726 45.8125C 7.03096 45.2227 7.29436 44.7505 7.55569 44.3871C 7.8256 44.0117 7.98713 43.9055 8.02163 43.8879L 6.2077 40.3229C 5.35547 40.7565 4.74422 41.4453 4.30811 42.0518C 3.86344 42.6702 3.4876 43.3666 3.17291 43.9752C 2.83322 44.6321 2.57525 45.1636 2.28841 45.6666C 2.00139 46.1699 1.7914 46.4475 1.64679 46.584L 4.39182 49.4934ZM 8.02163 43.8879C 8.8261 43.4786 9.71659 43.1165 10.8096 42.6214C 11.8213 42.1631 12.9607 41.6084 13.9156 40.9118L 11.5582 37.6803C 10.9587 38.1176 10.1422 38.5324 9.1591 38.9778C 8.2572 39.3863 7.11378 39.8619 6.2077 40.3229L 8.02163 43.8879ZM 13.9156 40.9117C 15.2927 39.9072 16.7846 38.693 17.9329 38.1171L 16.1396 34.5416C 14.5966 35.3155 12.6085 36.9141 11.5582 37.6803L 13.9156 40.9117ZM 17.9329 38.1171C 18.7069 37.7289 19.5065 37.5301 20.5064 37.3354C 21.4553 37.1505 22.6948 36.9546 23.9542 36.5335L 22.6858 32.7399C 21.7459 33.0542 20.8711 33.1892 19.7417 33.4092C 18.6633 33.6192 17.4207 33.8991 16.1397 34.5416L 17.9329 38.1171ZM 23.9542 36.5335C 25.5799 35.9899 27.0324 35.8822 28.6346 35.9116C 30.116 35.9388 32.1962 36.1215 34.2493 36.0643L 34.1379 32.0658C 32.1232 32.122 30.6864 31.9486 28.708 31.9123C 26.8503 31.8782 24.8998 31.9996 22.6858 32.7399L 23.9542 36.5335ZM 34.2493 36.0643C 36.6154 35.9984 39.1858 36.0412 41.7991 35.644L 41.1981 31.6894C 38.9061 32.0378 36.7418 31.9933 34.1379 32.0658L 34.2493 36.0643ZM 41.7991 35.644C 42.7136 35.505 43.5794 35.4492 44.6802 35.331C 45.7114 35.2202 46.8584 35.0601 47.991 34.7051L 46.7945 30.8882C 46.0462 31.1228 45.2144 31.2506 44.253 31.3538C 43.3611 31.4496 42.2203 31.5341 41.1981 31.6894L 41.7991 35.644ZM 47.991 34.7051C 52.1763 33.3931 56.399 31.3353 59.753 28.1982L 57.0207 25.2769C 54.2373 27.8802 50.6097 29.6923 46.7945 30.8882L 47.991 34.7051ZM 59.753 28.1982C 60.5166 27.484 61.2431 26.7431 61.9302 26.049C 62.6286 25.3435 63.2944 24.6778 63.9899 24.0509L 61.3115 21.0799C 60.5227 21.7911 59.7855 22.5298 59.0874 23.235C 58.378 23.9516 57.7148 24.6277 57.0207 25.2769L 59.753 28.1982ZM 63.9899 24.0509C 65.7212 22.4901 67.4469 20.4976 68.3938 18.044L 64.662 16.6039C 64.0314 18.2381 62.8069 19.7319 61.3115 21.0799L 63.9899 24.0509ZM 68.3938 18.044C 69.1955 15.9666 69.5938 13.8482 69.8852 11.8387C 70.1885 9.7477 70.3608 7.93343 70.7191 6.0386L 66.7887 5.29548C 66.4126 7.28478 66.1925 9.4317 65.9267 11.2645C 65.649 13.1788 65.3015 14.9468 64.662 16.6039L 68.3938 18.044ZM 70.6577 6.27987C 70.908 5.50229 71.0605 4.8547 71.1766 4.38938C 71.3028 3.88359 71.3682 3.6777 71.4351 3.53965C 71.461 3.48628 71.5108 3.23122 72.7957 2.68606L 71.2333 -0.996187C 69.6203 -0.311795 68.4905 0.444327 67.8358 1.79468C 67.5625 2.35851 67.4124 2.95262 67.2955 3.42132C 67.1685 3.93051 67.0504 4.43192 66.8501 5.05421L 70.6577 6.27987ZM 103.862 11.3057C 104.561 11.7576 105.827 12.9999 107.192 14.5446C 108.511 16.0382 109.718 17.5775 110.289 18.4341L 113.617 16.2139C 112.907 15.1501 111.572 13.4612 110.189 11.8963C 108.852 10.3826 107.255 8.73597 106.033 7.94599L 103.862 11.3057ZM 89.1802 3.77498C 91.0193 4.54754 91.3845 4.89693 92.0579 5.3291C 92.9572 5.90623 93.9571 6.33906 96.5466 7.04204L 97.5946 3.18176C 95.128 2.51214 94.5986 2.20673 94.2183 1.96268C 93.6121 1.57366 92.9475 1.01894 90.7294 0.0871594L 89.1802 3.77498ZM 110.289 18.4341C 110.416 18.6238 110.6 19.0456 110.776 19.7771C 110.944 20.4753 111.074 21.3199 111.17 22.2487C 111.362 24.1052 111.405 26.1413 111.405 27.7086L 115.405 27.7086C 115.405 26.0928 115.362 23.8968 115.149 21.8369C 115.042 20.8074 114.889 19.7727 114.665 18.8411C 114.449 17.9428 114.131 16.9843 113.617 16.2139L 110.289 18.4341ZM 15.4054 102.236C 13.4333 102.047 11.619 101.117 10.0658 99.889C 8.51523 98.6631 7.3321 97.2239 6.65182 96.2225L 3.34314 98.4703C 4.20054 99.7324 5.64962 101.497 7.58514 103.027C 9.51806 104.555 12.0438 105.933 15.025 106.218L 15.4054 102.236ZM 3.35828 88.1482C 2.51222 83.3771 2 81.9273 2 77.34L -2 77.34C -2 82.3779 -1.38718 84.2963 -0.580271 88.8466L 3.35828 88.1482ZM 54.8945 87.3432C 54.8945 89.2043 54.9862 90.7563 55.0289 91.9603C 55.0733 93.2125 55.063 94.0641 54.9303 94.7847C 54.7074 95.996 54.0912 97.1621 51.4362 99.2317L 53.8954 102.386C 56.8862 100.055 58.3843 98.1162 58.8642 95.5088C 59.083 94.3201 59.0713 93.0838 59.0264 91.8186C 58.9798 90.5051 58.8945 89.1101 58.8945 87.3432L 54.8945 87.3432ZM 100.285 53.8083C 100.193 53.9278 99.8198 54.271 98.9477 54.7904C 98.1334 55.2753 97.05 55.8182 95.7408 56.3909C 93.1269 57.5343 89.7386 58.7417 86.0786 59.8011C 78.6593 61.9486 70.5563 63.3612 65.6324 62.6634L 65.0711 66.6238C 70.8992 67.4498 79.7108 65.8084 87.1908 63.6434C 90.9804 62.5464 94.538 61.2829 97.3438 60.0556C 98.7446 59.4429 99.9895 58.8256 100.994 58.2271C 101.941 57.6632 102.878 57 103.459 56.2419L 100.285 53.8083ZM 108.108 41.9209C 105.629 47.6669 103.085 50.1557 100.285 53.8083L 103.459 56.2419C 106.041 52.8736 109.047 49.8405 111.781 43.506L 108.108 41.9209ZM 111.405 27.7086C 111.405 30.6168 110.608 36.1288 108.108 41.9209L 111.781 43.506C 114.495 37.2176 115.405 31.1666 115.405 27.7086L 111.405 27.7086ZM 40.7487 70.1062C 40.7453 70.1062 40.7655 70.1064 40.8242 70.1071C 40.8766 70.1078 40.9501 70.1088 41.0435 70.1103C 41.2302 70.1133 41.4942 70.118 41.8243 70.1248C 42.4845 70.1384 43.4074 70.1605 44.5023 70.1943C 46.6943 70.2621 49.565 70.3767 52.3928 70.5638C 55.2383 70.752 57.9723 71.0096 59.9205 71.353C 60.9199 71.5291 61.5758 71.7054 61.9171 71.8493C 62.1085 71.93 62.0182 71.9261 61.8625 71.7634C 61.6318 71.5224 61.285 70.9174 61.5301 70.1737L 65.3292 71.4252C 65.6714 70.3865 65.2355 69.5025 64.752 68.9974C 64.3434 68.5706 63.8367 68.3176 63.4708 68.1634C 62.6976 67.8374 61.6753 67.6006 60.6148 67.4137C 58.4433 67.0309 55.5306 66.7626 52.6568 66.5725C 46.8881 66.1908 40.9791 66.1062 40.7487 66.1062L 40.7487 70.1062ZM 65.6324 62.6634C 62.2955 62.1904 57.4664 61.8149 52.8669 61.6947C 48.3334 61.5762 43.7643 61.6965 41.0738 62.3087L 41.9613 66.209C 44.104 65.7214 48.2088 65.5744 52.7624 65.6934C 57.25 65.8106 61.9214 66.1774 65.0711 66.6238L 65.6324 62.6634ZM 41.0738 62.3087C 39.935 62.5678 38.9306 63.1244 38.3153 64.0914C 37.7111 65.0409 37.6933 66.0558 37.8289 66.8083C 37.9634 67.555 38.2726 68.2108 38.5741 68.6831C 38.7259 68.9208 38.9095 69.1653 39.1196 69.3775C 39.2217 69.4807 39.3709 69.6179 39.5625 69.7436C 39.6938 69.8296 40.1299 70.1062 40.7487 70.1062L 40.7487 66.1062C 41.0636 66.1062 41.3062 66.1831 41.4434 66.2373C 41.5877 66.2944 41.6934 66.3576 41.7557 66.3984C 41.877 66.4779 41.9463 66.5473 41.9625 66.5637C 42.0007 66.6022 41.9879 66.5969 41.9455 66.5305C 41.8585 66.3943 41.788 66.2239 41.7655 66.0991C 41.7441 65.9802 41.792 66.0784 41.69 66.2388C 41.5769 66.4166 41.5111 66.3114 41.9613 66.209L 41.0738 62.3087Z"/>
<path id="path14_fill" d="M 80.1707 0C 79.013 0 77.8556 0.474783 74.9578 1.70434C 72.06 2.9339 72.5985 3.72671 71.6972 6.52644C 70.9628 10.4106 70.9124 14.4488 69.4712 18.1834C 68.6825 20.2273 67.2074 21.9704 65.5941 23.4248C 64.1098 24.7629 62.7879 26.2336 61.3302 27.597C 58.2615 30.4671 54.3363 32.4021 50.3361 33.656C 48.4551 34.2457 46.3786 34.2318 44.4419 34.5261C 41.9893 34.8989 39.6219 34.8552 37.1369 34.9245C 33.0691 35.0378 30.1031 34.2122 26.2633 35.4961C 24.0641 36.2314 22.0347 36.1581 19.9796 37.1888C 18.634 37.8637 16.8939 39.27 15.6803 40.1554C 14.1258 41.2894 11.7686 42.0945 10.058 42.9648C 8.28455 43.8672 7.42271 47.5206 5.96265 48.8981C 5.21179 49.6065 4.73192 49.6617 4.59362 50.7561C 4.47425 51.7007 4.22785 53.23 4.22785 54.1815C 4.22785 57.421 4.41596 60.6466 4.41596 63.8886C 4.41596 65.8471 4.23419 67.5361 3.78892 69.4445C 3.48782 70.735 3.66351 72.1625 3.66351 73.4804C 3.66351 74.4744 4.01971 75.5691 4.33235 76.5099C 4.72736 77.6986 4.67373 79.0801 4.59362 80.3257C 4.42945 82.8782 4.94932 85.8468 3.99793 88.2087C 3.28511 89.9784 2.53484 91.8901 2.53484 93.8275C 2.53484 95.7131 -0.693512 98.9137 0.136402 100.517C 0.842041 101.88 5.76312 100.55 7.19583 101.061C 8.17843 101.411 9.64085 101.145 10.655 101.145C 11.7736 101.145 12.5552 101.617 13.3513 102.361C 14.4715 103.407 16.6375 104.941 18.1586 105.086C 25.096 105.749 28.9016 110.277 35.8541 109.967C 37.4271 113.783 43.2343 107.666 47.6085 109.967C 51.9827 112.267 53.6808 111.335 54.8508 111.133C 55.3918 111.053 60.4941 104.998 60.4941 104.218C 60.4941 102.023 58.2104 101.581 59.9925 99.0983C 61.0115 97.6787 62.3118 96.5879 63.3785 95.2091C 64.3711 93.9263 60.7412 90.2801 61.6646 88.9216C 62.2688 88.0327 62.9886 87.5521 63.3785 86.4476C 63.6887 85.5692 63.6711 84.8368 63.6711 83.9108C 63.6711 82.0903 62.3118 80.7744 62.3118 78.9539C 62.3118 75.871 64.5777 72.8491 66.5965 70.662C 67.1383 70.0751 69.1192 69.3207 69.7534 68.7316C 70.5945 67.9504 71.3977 68.1041 72.4288 67.6414C 73.0103 67.3804 73.9066 67.0838 74.5294 67.0124C 75.3514 66.9182 76.4147 67.2229 77.1943 66.8971C 77.6226 66.7181 78.0824 66.8638 78.532 66.7818C 79.5024 66.6048 80.3574 66.4774 81.3536 66.4149C 83.2823 66.294 85.2783 66.0126 87.1851 65.7126C 88.589 65.4917 89.8841 64.9086 91.2818 64.5804C 92.508 64.2925 93.5832 63.4264 94.7827 62.9556C 95.6862 62.601 96.8519 61.2993 97.4267 60.4921C 98.021 59.6576 98.6441 59.1141 99.3915 58.406C 100.728 57.14 101.731 55.4959 103.31 54.4226C 105.059 53.2347 105.996 51.9151 105.996 49.8206C 105.996 46.7961 109.288 42.6705 109.274 42.4626C 109.198 41.3619 111.589 38.8911 111.589 37.8183C 111.589 31.685 113.904 35.2827 116.55 30.1883C 119.196 25.0938 119.7 26.2456 121.18 22.89C 122.66 19.5344 125.186 20.4899 122.172 14.5965C 119.159 8.70311 117.021 10.179 111.589 8.62522C 106.158 7.07141 105.07 7.3439 100.014 5.9713C 94.9579 4.5987 93.5937 2.65391 89.5365 0.949575C 85.4793 -0.754764 84.4356 1.03348 81.8762 1.13827C 80.69 1.18683 81.3816 0 80.1707 0Z"/>
<path id="path15_fill" d="M 76.561 10.2702C 76.561 7.26003 75.4135 2.69802 79.1404 1.99707C 77.9468 0.799757 76.7157 0.821311 75.0325 0.28814C 72.9451 -0.373057 69.6712 0.124645 67.9471 1.56584C 66.5793 2.70914 64.1607 3.45474 62.4539 4.02542C 59.99 4.84927 57.8939 6.43699 55.7984 7.93839C 54.0537 9.18843 53.4798 10.5808 52.3274 12.2666C 51.1455 13.9955 48.54 15.8444 46.5953 16.6907C 44.8342 17.457 42.9758 17.8677 41.1977 18.5593C 39.9684 19.0374 38.8513 19.8375 37.663 20.412C 29.8348 24.1962 22.0743 27.6771 14.6394 32.1828C 11.3871 34.1538 8.65853 36.3216 5.7707 38.8269C 2.98795 41.241 1.75651 43.2715 0.42082 46.7167C -0.17959 48.2654 0.0386857 49.949 0.0386857 51.5879C 0.0386857 53.0035 0.451909 54.0769 0.834798 55.3731C 1.09736 56.262 0.696783 57.0884 1.23285 57.9286C 2.27792 59.5665 4.21897 61.3861 6.18467 61.7617C 8.21514 62.1496 10.5956 64.2755 11.4709 63.806C 12.3461 63.3365 13.9107 58.3245 15.2346 57.309C 19.3065 54.1856 18.9543 54.96 18.9543 50.6297C 18.9543 48.5165 19.171 48.0751 20.658 46.7327C 22.3034 45.2473 24.7629 43.7027 26.8518 42.8357C 30.0106 41.5245 33.5762 43.1074 36.7235 42.117C 39.2608 41.3185 41.4306 41.0948 44.1433 41.0948C 48.4363 41.0948 52.3601 42.2447 56.5945 42.2447L 59.6197 42.2447C 60.721 42.2447 61.5996 41.7333 62.6768 41.6698C 64.2512 41.5769 65.0725 40.3724 66.3708 39.7213C 67.5419 39.1339 67.1032 37.514 67.1032 36.1437C 67.1032 34.6274 67.3413 33.6469 67.7401 32.2467C 68.5735 29.3208 72.1912 28.2819 73.0581 25.3471C 73.7736 22.9248 72.2539 19.8089 73.5676 17.5851C 73.9412 16.9527 73.4303 16.2245 74.2523 15.8122C 74.6814 15.597 75.4389 14.5836 75.6375 14.1353C 75.9617 13.4035 76.561 13.0584 76.561 12.2027L 76.561 10.2702Z"/>
<path id="path16_fill" d="M 66.9362 0.848242C 65.7864 -0.53579 70.0389 0.188002 70.4368 0.197981C 70.8856 1.09823 72.3463 5.20378 72.3463 6.20403C 72.3463 9.20665 71.7992 12.1299 71.7098 15.1185C 71.6532 17.0119 71.0939 18.7758 70.649 20.5925C 70.0294 23.1232 69.6328 25.7085 69.0224 28.242C 68.2912 31.277 68.8792 34.6105 67.5609 37.4757C 64.0499 45.1064 57.8009 50.8478 50.6707 55.1391C 45.0636 58.5137 38.4676 59.5474 32.4957 62.1147C 27.4891 64.267 22.2609 65.8749 17.4442 68.4518C 16.1608 69.1383 16.3363 70.3233 16.3363 71.5848C 16.3363 72.8205 16.439 74.0648 16.1712 75.2736C 15.9179 76.4171 15.0633 77.3366 15.0633 78.4658C 15.0633 79.7723 14.2237 80.9819 13.8257 82.2018C 13.0841 84.4747 12.9931 87.0403 12.9417 89.4138C 12.8787 92.322 12.5764 95.3173 11.1266 97.9027C 9.82545 100.223 8.43867 102.056 6.65944 103.932C 5.53423 105.119 4.07949 105.019 2.53412 104.89C 1.35615 104.792 0 104.645 0 103.199C 0 102.161 0.577236 101.805 1.17866 101.024C 2.77373 98.9534 2.12218 96.1554 3.25311 93.9302C 3.83199 92.7912 4.6675 92.2812 4.6675 90.9508L 4.6675 87.5576C 4.6675 86.0781 4.87966 84.6152 4.87966 83.124C 4.87966 81.88 4.55728 81.4152 4.16068 80.3102C 3.12596 77.4271 6.19428 75.2106 6.36477 72.3888C 6.46037 70.8066 6.34426 69.197 6.36477 67.6123C 6.38256 66.2387 7.07 65.1229 7.54344 63.8763C 7.72764 63.3912 7.6037 62.8448 7.64952 62.3393C 7.70333 61.7456 8.17374 61.4411 8.27421 60.8969C 8.4264 60.0725 9.95667 59.6996 10.608 59.4663C 11.1498 59.2722 11.8767 58.3448 12.2227 57.8821C 12.7637 57.1585 14.1897 56.6322 14.9454 56.1204C 16.1234 55.3229 17.7949 55.1028 19.0943 54.5125C 20.4821 53.8822 22.1587 54.4585 23.6204 54.0396C 27.0875 53.046 31.3941 54.9361 34.6645 53.0819C 35.1496 52.8069 35.7415 52.1671 36.1378 51.7696C 36.3111 51.5957 36.8068 51.289 36.9039 51.143C 37.5916 50.1082 38.5786 49.0771 39.6738 48.4592C 41.3302 47.5246 41.9356 45.8606 42.6911 44.3448C 43.1103 43.5039 44.1287 42.4788 44.8127 41.8383C 45.6314 41.0719 47.1435 40.3261 47.724 39.3555C 48.6371 37.8291 49.7136 36.7461 50.3878 35.1229C 50.5262 34.7898 50.8703 34.6903 50.9653 34.3662C 51.1002 33.9063 51.0278 33.414 51.1539 32.9711C 51.3636 32.2352 52.1785 31.5247 52.4976 30.7957C 53.0691 29.49 54.1234 28.7751 54.9021 27.6035C 55.5869 26.5731 54.5812 24.9135 55.4796 23.832C 56.1607 23.0122 57.381 22.3597 57.9077 21.4793C 58.2494 20.908 58.1316 20.2282 58.1316 19.5639C 58.1316 18.756 58.5258 18.2382 58.5559 17.4831C 58.6058 16.2334 60.8937 15.3715 61.644 14.5747C 62.5495 13.613 63.1596 12.1559 64.0603 11.2524C 64.1407 11.1717 65.1101 9.69403 65.1211 9.6445C 65.189 9.33788 65 8.84858 65.2272 8.59226C 65.5638 8.21233 65.6249 8.10048 65.7811 7.55184C 66.1161 6.37593 67.6788 6.12195 67.6788 4.71434C 67.6788 3.3948 67.819 1.91084 66.9362 0.848242Z"/>
<path id="path17_fill" d="M 10.4038 0C 8.2732 0 2.62638 12.5453 0.659418 13.5117C 0.659418 16.6191 0.0862168 19.7439 0.0862168 22.7431C 0.0862168 27.9715 -0.667735 33.548 2.28349 38.0756C 3.3968 39.7835 4.39822 42.1467 6.05706 43.3781C 7.60121 44.5242 9.41678 45.7668 11.1999 46.5084C 11.4811 46.6254 11.7904 46.5258 12.0597 46.7001C 13.1925 47.4331 13.9272 48.5972 15.0372 49.3194C 16.6793 50.3878 17.9963 51.8185 19.4158 53.0567C 20.7085 54.1842 23.2412 54.8362 24.1447 56.3467C 24.515 56.9658 26.6312 57.3397 27.2496 57.4328C 31.4199 58.0603 36.5123 58.5576 40.4013 56.6662C 43.6116 55.1049 46.8443 53.6317 50.1139 52.2262C 52.9918 50.989 56.6671 51.0164 59.715 50.4693C 62.2216 50.0194 64.6335 49.2558 67.1189 48.7125C 69.3228 48.2306 72.9368 47.7712 72.8827 45.0071C 72.8566 43.6697 72.6772 42.0686 72.1662 40.8386C 71.2096 38.5357 71.7052 36.1015 71.7363 33.6675C 71.7759 30.5685 72.0229 27.5697 72.0229 24.468C 72.0229 23.3507 72.7093 18.9277 71.9592 18.1753C 71.2103 17.4241 68.9149 18.2127 68.52 19.0378C 67.8763 20.383 64.717 22.0741 63.1383 22.1362C 58.1103 22.334 61.3311 31.6232 55.9733 31.6232C 54.1115 31.6232 53.9321 35.3287 52.1042 36.175C 51.2067 36.5905 48.3165 36.3702 47.4231 36.191C 46.4475 35.9953 45.4531 35.7766 44.4456 35.5841C 43.2278 35.3514 42.4234 34.5219 41.3726 33.9071C 38.4801 32.2146 38.9375 29.2076 39.6212 26.4644C 40.2689 23.8655 40.6464 18.5934 36.1979 19.8683C 35.6316 20.0306 33.8097 23.1033 33.3159 20.8745C 33.1822 20.2709 32.1424 20.4113 31.7396 20.4113C 30.7084 20.4113 30.9753 20.9156 30.1793 21.2578C 29.3008 21.6354 27.9178 22.2836 26.9948 21.705C 26.3113 21.2765 24.7596 21.0375 23.9377 20.7627C 22.9525 20.4333 23.1938 20.245 22.5844 19.3892C 21.6526 18.0806 20.6353 15.8933 20.4189 14.3742C 20.2831 13.4202 18.9608 11.9339 18.1261 11.5153C 16.8391 10.8698 16.1051 9.4703 15.8652 7.90579C 15.639 6.43094 14.0597 4.22416 13.1584 3.03455C 12.4332 2.0774 11.7633 0 10.4038 0Z"/>
<path id="path18_fill" d="M 3.03716 5.01633C 2.63766 5.01633 2.37854 5.30981 1.92576 5.32037C 1.92576 5.82476 1.53887 6.83435 1.39812 7.24506C 1.17262 7.9031 1.31954 8.37651 1.31954 9.06932C 1.31954 9.55516 1.59584 9.91404 1.62265 10.3981C 1.63227 10.5719 1.7697 10.6578 1.81911 10.8147C 1.90709 11.0942 1.8945 11.3987 1.97066 11.6818C 2.28011 12.8321 2.84814 14.07 2.55443 15.2853C 2.43052 15.798 2.64782 16.3222 2.37481 16.8055C 2.27932 16.9746 2.28186 17.1751 2.20642 17.3517C 2.07932 17.6491 1.83805 17.8764 1.70123 18.1681C 1.44504 18.7142 1.03452 19.035 1.01643 19.6883C 0.998856 20.323 1.12859 20.8251 1.24096 21.4337C 1.39846 22.2869 1.41057 23.1231 1.31954 23.9449C 1.17306 25.2673 0.00606795 26.1836 0.00606795 27.5202C 0.00606795 27.8107 0.208141 28.0044 0.208141 28.2972C 0.208141 28.6106 0.134046 28.9226 0.0616201 29.2276L 0.0565861 29.2488C -0.0954834 29.8894 0.107104 30.5221 0.107104 31.1631C 0.107104 31.6089 0.278261 32.1465 0.67403 32.323C 1.09413 32.5103 1.72297 32.5052 2.10538 32.2779C 2.81082 31.8586 3.2295 31.2146 3.81177 30.5888C 4.15733 30.2174 4.54743 30.0298 4.83336 29.6091C 4.99895 29.3655 5.30196 29.2715 5.43958 28.9954C 5.55834 28.7571 5.58689 28.676 5.78759 28.4943C 5.99452 28.307 6.05458 28.0416 6.22542 27.8299C 6.35264 27.6722 6.52045 27.6353 6.65201 27.5033C 7.11581 27.0381 7.38172 26.4037 7.38172 25.7579L 7.38172 23.1341C 7.38172 22.6324 7.25617 21.9671 7.48276 21.5126C 7.72429 21.028 7.61976 20.5427 7.69606 20.0261C 7.77674 19.4799 8.04788 19.0027 8.24053 18.5003C 8.41719 18.0395 8.9303 17.5401 9.24528 17.149C 9.59673 16.7125 9.81303 16.2823 10.0592 15.7695C 10.6261 14.5885 10.5089 13.8392 10.2164 12.6165C 10.0518 11.9287 9.99806 11.2115 10.4633 10.6515C 10.8222 10.2195 10.2107 9.48127 10.2107 9.07495C 10.2107 8.7811 10.2536 8.4494 10.1602 8.16845C 10.0836 7.93778 9.93589 7.77555 9.90202 7.55473C 9.86328 7.30214 9.54795 7.32684 9.5091 7.09304C 9.4632 6.81682 9.24962 6.62303 9.20599 6.33856C 9.16867 6.09523 9.20038 5.82457 9.20038 5.57846C 9.20038 5.35705 9.39264 5.30498 9.40245 5.0492C 9.42077 4.57128 9.50348 4.04403 9.50348 3.52898C 9.50348 3.24148 9.58726 0.909031 9.34632 0.727766C 9.23862 0.646744 9.21182 0.30899 9.20109 0.17365L 9.20038 0.164724C 9.1699 -0.217451 8.15038 0.172456 8.01039 0.266072C 7.66411 0.49764 7.36948 2.94674 6.98319 3.14048C 6.87105 3.19672 6.62974 2.74686 6.58466 2.84861C 6.4702 3.10693 6.29726 3.07008 6.16367 3.29342C 6.00486 3.55891 5.45056 3.96075 5.15331 4.10983C 4.92242 4.22563 4.60471 4.35252 4.40115 4.50959C 4.10562 4.73762 3.8205 4.6098 3.50866 4.72354C 3.31468 4.7943 3.30026 5.01633 3.03716 5.01633Z"/>
<path id="path19_fill" d="M 71.1097 9.13503L 71.1097 0.627729C 73.268 0.627729 77.5691 -0.312833 77.8627 1.48113C 78.1478 3.22301 78.0879 5.01034 77.9292 6.76152C 77.8246 7.91523 78.0288 8.88423 77.198 9.74841C 76.3328 10.6485 74.7129 11.8476 75.0977 13.2687C 75.1958 13.6311 76.107 15.8746 76.3739 14.8421C 76.6675 13.7062 78.8446 13.8287 79.7105 13.8287C 80.6548 13.8287 81.1757 13.7109 82.0368 13.3353C 83.5844 12.6604 84.657 12.3236 85.8122 11.0285C 86.5063 10.2503 87.1808 9.5308 87.9923 8.90835C 89.53 7.72884 91.4286 6.52896 93.2564 5.96146C 94.4221 5.59956 95.5915 4.94295 96.7393 4.50802C 99.1548 3.59267 101.794 2.39502 103.772 0.6944C 105.224 -0.554254 108.918 -0.111219 109.341 1.96116C 109.735 3.88421 109.185 5.97498 107.587 7.18822C 103.791 10.0695 99.3883 10.7257 95.1441 12.4286C 94.1826 12.8144 93.2428 13.6298 92.2993 14.0954C 91.0445 14.7147 89.7953 15.3083 88.6038 16.0422C 86.6501 17.2455 84.2182 17.4441 82.0634 18.0957C 78.8737 19.0603 74.9033 20.4665 72.4523 22.7094C 71.4887 23.5911 70.1864 24.9152 69.9664 26.283C 69.79 27.3805 69.9458 28.535 69.9133 29.6432C 69.8611 31.4242 68.8171 33.6131 67.6268 34.9503C 66.801 35.878 65.5268 36.5635 64.4896 37.2438C 63.6793 37.7752 62.9891 38.3732 62.1765 38.9239C 60.2939 40.1999 58.015 40.5109 55.8622 40.9907C 54.495 41.2955 53.8491 42.2191 52.7914 43.0042C 52.314 43.3586 51.8652 44.6612 51.3424 44.7777C 49.4987 45.1887 46.7025 44.093 45.1344 45.5644C 44.2168 46.4255 43.5827 46.6733 42.4492 47.0179C 41.3917 47.3393 40.6273 47.9825 39.5379 48.1646C 37.8747 48.4427 36.0675 49.3339 34.4731 49.9381C 33.7092 50.2275 32.9508 50.854 32.1601 51.0182C 31.5251 51.1499 30.8671 51.1484 30.2325 51.2848C 29.6584 51.4083 27.1716 51.7295 26.8959 52.0982C 25.8601 53.4836 22.7346 53.8542 21.2329 54.8584C 20.5602 55.3083 20.563 55.8234 19.8504 56.2319C 19.099 56.6626 18.283 57.1441 17.6171 57.6987C 16.5229 58.6099 15.0807 59.4776 14.6261 60.8456C 14.3108 61.7945 13.5576 62.3065 13.3898 63.3791C 13.2307 64.3967 12.7718 65.1041 12.7119 66.1259C 12.6699 66.8417 12.549 67.9096 12.3264 68.5795C 12.0544 69.3978 11.5744 70.1287 11.3958 70.9796C 11.2779 71.5416 11.3275 72.1524 11.1034 72.6864C 10.959 73.0305 11.113 73.4345 11.0236 73.7932C 10.9328 74.1575 10.5886 74.5444 10.452 74.9133C 10.2998 75.3243 10.0117 76.1527 9.73416 76.4867C 9.32216 76.9826 9.14453 78.376 8.94985 79.0069C 8.63849 80.0159 8.31519 80.856 8.07248 81.8871C 7.46256 84.4783 6.75497 86.8823 6.27788 89.5144C 5.98462 91.1323 6.02531 92.6938 6.02531 94.3414C 6.02531 97.9772 6.74315 101.368 6.74315 104.982L 6.74315 110.849C 6.74315 112.75 3.75129 111.175 2.55573 111.009C 1.75302 110.898 1.12106 110.603 0.282566 110.556C -0.114488 110.534 0.0432854 109.82 0.0432854 109.543C 0.0432854 108.363 -0.110973 107.043 0.162926 105.889C 0.27574 105.414 0.740377 104.803 0.761128 104.449C 0.805561 103.691 0.761128 102.914 0.761128 102.155C 0.761128 101.116 0.741941 100.074 0.761128 99.0351C 0.778539 98.0919 1.43315 97.4014 1.47897 96.5282C 1.51853 95.7743 1.3856 94.9836 1.49226 94.2347C 1.58791 93.5631 2.14888 92.9139 2.31645 92.2079C 2.52776 91.3177 2.91465 90.7492 2.91465 89.781C 2.91465 88.7202 2.89406 87.8016 3.20711 86.7942C 4.06349 84.0381 3.36773 81.2439 3.97812 78.5269C 4.54411 76.0076 4.58962 73.6341 4.58962 71.0596C 4.58962 68.523 5.7731 65.6468 7.00902 63.4591C 8.05019 61.6161 9.27444 59.9607 10.3324 58.192C 11.7076 55.8929 9.93452 52.3825 12.4327 50.8448C 13.5129 50.1799 14.3316 50.0814 15.5567 49.8181C 16.1575 49.6889 17.6175 49.3216 18.0026 48.858C 18.4657 48.3006 19.404 48.1752 20.0365 47.8579C 20.2913 47.7302 20.8936 47.7537 21.0468 47.5646C 21.7508 46.6955 23.9714 46.8319 24.9817 46.5645C 27.5563 45.883 30.1566 45.8407 32.745 45.2844C 34.3294 44.9438 36.4487 45.487 37.8629 44.7777C 38.8766 44.2693 39.7909 43.3239 40.5881 42.5242C 42.0859 41.0218 43.9116 40.3763 45.7459 39.3906C 47.9846 38.1876 50.0441 37.8551 52.4192 37.0304C 53.9892 36.4853 55.4202 35.5885 57.0453 34.897C 57.874 34.5443 58.9199 33.79 59.6774 33.2835C 59.7327 33.2465 60.5146 32.3505 60.5414 32.2968C 61.0924 31.1914 62.2643 30.2486 63.1602 29.3499C 63.6406 28.8681 64.6491 27.9052 64.6491 27.2697C 64.6491 26.8137 64.8884 26.5039 64.8884 26.0163C 64.8884 25.388 65.3669 25.3397 65.3669 24.7495L 65.3669 24.7261C 65.3668 24.2683 65.3667 23.883 65.7126 23.5361C 66.0964 23.1511 65.8703 22.9254 66.138 22.5227C 67.3115 20.757 69.1056 19.3465 69.1954 17.0023C 69.2562 15.4169 69.12 13.8551 70.1526 12.5086C 71.0446 11.3454 71.1097 10.5791 71.1097 9.13503Z"/>
<path id="path20_fill" d="M 0.728458 102.539C 0.208402 104 -0.548504 104.024 0.606391 103.764C 1.48426 104.116 1.52885 104.798 2.12541 105.396C 2.39895 105.671 2.78954 106.413 3.12904 106.553C 3.86612 106.855 11.3088 106.537 12.0491 106.757C 12.5233 106.898 13.6816 107.266 14.0157 106.729C 14.8111 105.453 14.6526 103.327 14.1106 102.022C 13.4873 100.522 13.4039 98.7035 13.5681 97.0975C 13.7186 95.6253 14.5446 94.3336 14.5446 92.8121C 14.5446 91.1745 14.8609 89.7895 15.3855 88.2547C 16.1723 85.9527 17.23 83.6994 17.23 81.2348C 17.23 79.1521 17.1202 76.8706 17.6369 74.8407C 18.2345 72.4929 18.2065 70.3032 18.2065 67.8889C 18.2065 66.0364 19.2711 64.5875 19.4407 62.8009C 19.5655 61.4869 21.5498 60.4665 22.438 59.8079C 23.3888 59.103 24.2871 58.5397 25.2591 57.8897C 27.0282 56.7066 29.423 54.5869 31.5521 54.0941C 33.5659 53.6279 35.2881 52.1367 37.4112 51.6453C 39.5784 51.1436 41.7334 50.4226 43.6093 49.3053C 44.7465 48.628 46.1942 47.8638 46.7829 46.5844C 47.2303 45.612 47.9987 44.9628 48.7766 44.3125C 49.6732 43.5631 51.5066 42.2726 52.6826 42.0542C 53.29 41.9414 53.3922 41.1302 53.9711 40.857L 54.0019 40.8425C 54.6828 40.5211 55.3783 40.1928 55.9919 39.7414C 57.8262 38.3922 59.0909 36.1804 60.5761 34.4901C 61.7859 33.1132 63.3506 32.0834 64.455 30.5449C 64.8651 29.9735 65.5081 29.9001 65.8384 29.3205C 66.0991 28.8628 66.6934 28.3418 67.0861 27.9873C 67.6709 27.4593 67.6783 26.823 68.144 26.2459C 68.718 25.5346 69.2508 24.7747 69.7986 24.042C 70.8505 22.6351 71.1877 20.9391 71.7788 19.3349C 72.234 18.0994 72.1161 16.7363 72.6468 15.512C 73.1046 14.4558 73.6233 13.4146 73.6233 12.2742C 73.6233 11.2602 73.5402 10.356 73.881 9.44448C 74.3141 8.28596 75.8204 7.03369 75.8204 5.7849C 75.8204 4.97788 75.507 3.17651 75.9696 2.50624C 76.422 1.85087 77.0411 0.936598 77.0411 0.0846632C 77.0411 -0.144288 76.5905 0.161636 76.3629 0.179894C 75.9381 0.213987 76.1688 0.746597 75.8069 0.928135C 75.0422 1.31166 75.0248 2.45725 74.3557 2.85996C 73.4441 3.40857 72.9433 4.85402 72.3484 5.70327C 71.6634 6.68104 71.7538 7.56526 71.6703 8.69624C 71.6247 9.31284 71.182 9.66131 71.182 10.3696C 71.182 11.2796 71.2095 12.1944 71.182 13.1041C 71.1602 13.8263 71.1939 15.7337 70.8294 16.3963C 70.4871 17.0187 70.3133 17.701 70.2191 18.4098C 70.152 18.9141 69.7529 19.2336 69.7173 19.7158C 69.5093 22.5318 66.2968 24.7976 64.3736 26.5452C 62.7325 28.0364 60.848 29.1936 59.4097 30.8986C 58.4099 32.0838 57.378 33.287 56.4123 34.4493C 55.8031 35.1827 55.0471 36.1745 54.1881 36.6668C 52.4622 37.6561 50.4353 37.7688 48.7359 38.7347C 46.3972 40.0641 44.0099 41.938 42.0496 43.9044C 40.369 45.5901 38.0404 47.1966 35.4988 47.1966C 34.0371 47.1966 32.9804 47.6864 31.5521 47.6864C 30.3808 47.6864 29.2146 47.9313 28.0258 47.9313C 25.6734 47.9313 24.4714 48.35 23.2789 50.4073C 22.7439 51.3304 21.7516 52.2412 21.3259 53.1282C 20.6788 54.4764 19.1812 55.1821 18.3964 56.3932C 17.9789 57.0375 17.5497 57.734 17.0944 58.325C 16.7132 58.8198 16.4022 60.0142 16.2806 60.6242C 16.2127 60.9648 16.3937 61.5423 16.1992 61.835C 15.5934 62.7466 15.5211 63.8192 15.5211 64.8823C 15.5211 65.8014 14.9244 66.3649 14.7752 67.2631C 14.7031 67.6966 14.1042 68.2963 13.8936 68.7188C 13.523 69.4623 13.3248 70.3163 12.8086 70.9635C 12.3441 71.5459 12.189 72.3538 11.805 72.8545C 11.5001 73.252 10.9539 73.4889 10.8963 74.0381C 10.5997 76.8642 4.2683 79.9001 4.2683 82.7313C 4.2683 84.7324 3.43374 86.2387 3.15616 88.173C 2.8683 90.1791 3.09334 92.2611 3.0341 94.2814C 2.99129 95.7413 2.91517 97.2198 2.80354 98.6756C 2.76687 99.1538 2.21314 99.7745 2.05759 100.295C 1.80248 101.148 1.00063 101.775 0.728458 102.539Z"/>
<path id="path21_fill" d="M 41.9128 2.06434C 42.3203 1.73594 42.7432 1.50004 43.2054 1.50004C 43.2367 2.53354 42.6997 2.48654 41.9128 2.06434C 40.9794 2.81646 40.1266 4.0538 39.0683 4.0538L 37.312 4.0538C 36.6234 4.0538 36.4968 4.48004 35.8859 4.66859C 34.8413 4.99098 34.0779 5.66991 33.0335 6.19375C 32.0768 6.67359 31.4678 7.08733 30.3579 7.35239C 29.5682 7.541 28.7237 7.31101 27.9535 7.55338C 27.2492 7.775 26.4562 8.09724 25.714 8.09724C 24.5656 8.09724 23.7896 9.26213 23.1563 10.0244C 22.5655 10.7355 22.1093 11.7807 21.2705 12.3417C 21.0655 12.4788 21.2081 12.7257 21.0465 12.8973C 20.8313 13.1259 20.3892 13.1338 20.1272 13.2993C 19.4019 13.7574 19.4435 14.2224 19.4435 15.0136C 19.4435 16.3251 19.2701 17.2544 18.3945 18.2058C 17.9048 18.738 18.2516 19.5932 17.6284 20.062C 17.2914 20.3156 17.2279 21.184 16.7562 21.5281C 15.5925 22.377 15.2713 23.6371 14.5521 24.7794C 14.0897 25.5137 13.4363 26.1831 13.1731 27.0376C 12.8037 28.2364 13.0788 29.9011 13.0788 31.1401L 13.0788 35.6447C 13.0788 37.3659 14.0513 38.7063 13.397 40.4566C 12.7097 42.295 12.5486 44.0813 12.4423 46.0015C 12.3938 46.8762 11.5342 47.4963 11.2047 48.2124C 10.7996 49.0928 11.0689 51.3732 11.1811 52.3859C 11.3281 53.7125 11.3815 54.9773 11.3815 56.323C 11.3815 58.9087 10.3606 61.7488 11.1222 64.3271C 11.2946 64.9109 11.3815 65.4652 11.3815 66.0887C 11.3815 66.9073 10.995 66.9766 10.6271 67.5193C 10.3898 67.8694 10.5022 68.5573 10.0967 68.7607C 9.67147 68.974 9.09878 69.9432 9.04774 70.4041C 8.9737 71.0724 8.62342 71.5105 8.62342 72.2721C 8.62342 72.8808 8.45735 73.8074 8.78843 74.3293C 8.9313 74.5545 7.58144 74.4948 7.44476 74.4948C 5.9498 74.4948 4.13853 74.6472 2.73011 74.0219C 0.515587 73.0387 0.762316 70.8715 0.184198 68.9144C -0.468269 66.7055 0.712027 63.7669 2.16435 62.128C 2.50904 61.7391 3.10728 60.9666 3.10728 60.4492C 3.10728 60.0215 3.40495 59.9848 3.57874 59.5979C 4.65573 57.2002 4.23296 54.2279 4.47453 51.6765C 4.89961 47.1869 5.65319 42.8024 5.65319 38.2693C 5.65319 33.4851 6.07751 28.818 6.07751 24.0345C 6.07751 20.7407 7.86596 17.8541 10.2028 15.6403C 10.6456 15.2208 11.437 14.8906 11.9355 14.4461C 12.7438 13.7254 13.4548 12.9532 14.1985 12.1761C 15.0452 11.2914 15.848 10.1831 16.5676 9.20859C 18.5119 6.57566 21.1199 4.00405 24.1346 2.58775C 25.8934 1.7615 27.594 0.648793 29.6154 0.648793C 30.8993 0.648793 32.1563 0.333664 33.4225 0.15223C 34.8831 -0.0570803 36.3592 0.0103549 37.8307 0.0103549C 39.0566 0.0103549 40.7551 1.44329 41.9128 2.06434Z"/>
<path id="path22_fill" d="M 3.8492 4.00455C 3.73767 4.25627 3.2875 4.71906 3.12211 4.94718C 2.44485 5.20193 1.73096 6.85176 1.22893 7.35534C 0.896819 7.68848 0.560186 8.01591 0.241186 8.35989C -0.126223 8.75607 0.0354062 9.60634 0.0354062 10.0938C 0.0354062 13.0484 2.20215 13.8338 4.58314 14.9651C 7.76313 16.4761 11.0662 17.7599 14.3303 19.0797C 18.0488 20.5832 22.2406 21.0554 26.1832 21.6117C 33.848 22.693 41.5127 23.6389 49.258 23.8547C 53.1406 23.9629 57.2265 23.6726 60.9189 22.396C 61.7875 22.0957 62.4949 21.6451 63.2785 21.1851C 63.9068 20.8162 64.6334 20.492 65.1031 19.9122C 65.9269 18.8951 66.1934 17.7181 66.6258 16.5201C 67.0912 15.2308 67.4707 13.8855 67.545 12.5157C 67.6029 11.4472 67.5724 10.3726 67.5724 9.30251C 67.5724 8.80726 67.7574 6.74349 66.6395 7.45167C 65.7543 8.01251 64.3756 8.18738 63.3745 8.55254C 61.9407 9.07551 62.1398 9.8795 62.1398 11.1878C 62.1398 11.8922 61.7576 12.2238 61.399 12.7634C 61.1324 13.1646 60.6793 13.968 60.1918 14.0844C 59.3873 14.2766 58.373 14.112 57.5441 14.112L 56.2408 14.112C 55.6889 14.112 55.2203 13.82 54.6769 13.7473C 54.0146 13.6587 53.4843 13.3689 52.7837 13.3689L 51.1512 13.3689C 50.1516 13.3689 49.2506 14.0401 48.284 14.112C 48.0275 14.131 47.8299 14.3434 47.5569 14.3872C 46.9896 14.4782 46.5319 14.7299 45.9929 14.9101C 44.8819 15.2816 43.9777 15.3236 42.9337 14.8C 41.8721 14.2676 40.5621 14.4835 39.3668 14.4835C 38.7128 14.4835 38.0151 14.2106 37.3502 14.1395C 36.786 14.0791 36.033 13.9645 35.5736 13.5959C 34.2859 12.5626 32.4387 12.4853 31.1905 11.4836C 30.8743 11.2299 30.085 10.956 29.6814 10.8644C 28.9958 10.7087 28.4134 10.3363 27.7608 10.1006C 26.6178 9.68789 25.7092 8.38262 24.386 8.29108C 23.9517 8.26103 23.5047 8.29108 23.0691 8.29108C 22.5868 8.29108 22.3648 8.04429 21.9853 7.89202C 21.5345 7.71115 21.1565 7.52981 20.8192 7.20397C 20.6053 6.99738 19.9469 6.4192 19.6805 6.33015C 19.2711 6.19325 18.6397 5.74695 18.4047 5.37377C 18.1585 4.98273 17.7853 4.94375 17.4444 4.69948C 16.9492 4.34468 15.6873 4.57563 15.0711 4.57563C 14.1713 4.57563 13.3648 4.68625 12.5606 4.25913C 11.3581 3.62056 9.31562 4.20409 7.99223 4.20409C 7.22242 4.20409 6.33228 4.22265 6.33228 3.30963C 6.33228 2.98655 6.40153 2.74834 6.44888 2.46333C 6.49556 2.18243 6.79872 2.07456 6.92218 1.79593C 7.07817 1.44385 6.89744 -0.0154397 6.87416 0.000123554C 6.27834 0.398563 6.08603 0.835064 5.70808 1.40374C 5.3236 1.98223 4.99097 2.56418 4.38422 3.02065C 4.19032 3.16652 3.94783 3.78194 3.8492 4.00455Z"/>
<path id="path23_fill" d="M 0 62.92L 15.4 62.92L 15.4 43.472L 26.136 43.472C 38.368 43.472 46.64 34.32 46.64 21.648C 46.64 8.976 38.368 0 26.136 0L 0 0L 0 62.92ZM 15.4 30.272L 15.4 13.2L 23.232 13.2C 28.336 13.2 30.976 16.632 30.976 21.648C 30.976 26.664 28.336 30.272 22.968 30.272L 15.4 30.272Z"/>
<path id="path24_fill" d="M 53.5941 11.88L 68.4661 11.88L 68.4661 0L 53.5941 0L 53.5941 11.88ZM 53.4181 62.92L 68.6421 62.92L 68.6421 17.6L 53.4181 17.6L 53.4181 62.92Z"/>
<path id="path25_fill" d="M 81.4956 46.2C 81.4956 61.424 95.4876 63.36 102.704 63.36C 104.464 63.36 105.696 63.184 106.84 63.096L 106.84 49.896C 105.872 49.984 105.344 49.984 104.816 49.984C 101.912 49.984 96.7196 49.28 96.7196 44.176L 96.7196 30.272L 106.224 30.272L 106.224 18.392L 96.7196 18.392L 96.7196 5.368L 81.9356 5.368L 81.9356 18.392L 75.6876 18.392L 75.6876 30.272L 81.4956 30.272L 81.4956 46.2Z"/>
<path id="path26_fill" d="M 112.483 40.216C 112.483 52.272 121.195 63.976 137.387 63.976C 144.339 63.976 151.819 61.6 156.747 57.376L 151.115 46.728C 147.419 49.192 143.107 51.304 138.619 51.304C 133.779 51.304 129.203 48.752 128.059 43.208L 156.659 43.208C 156.835 41.624 157.011 40.04 157.011 38.456C 157.011 25.872 149.443 16.544 136.067 16.544C 121.459 16.544 112.483 26.928 112.483 40.216ZM 128.411 34.496C 129.203 30.888 131.315 27.72 135.715 27.72C 139.587 27.72 141.963 30.8 141.963 34.496L 128.411 34.496Z"/>
<path id="path27_fill" d="M 164.965 62.92L 180.189 62.92L 180.189 45.32C 180.189 37.048 184.237 31.68 192.685 31.68C 193.741 31.68 195.237 31.768 195.765 31.944L 195.765 16.984C 195.237 16.896 194.621 16.808 194.005 16.808C 187.229 16.808 181.509 21.912 179.573 28.072L 179.397 28.072C 179.397 28.072 179.573 26.752 179.573 25.256L 179.573 17.6L 164.965 17.6L 164.965 62.92Z"/>
<path id="path28_fill" d="M 203.414 62.92L 218.814 62.92L 218.814 43.472L 229.55 43.472C 241.782 43.472 250.054 34.32 250.054 21.648C 250.054 8.976 241.782 0 229.55 0L 203.414 0L 203.414 62.92ZM 218.814 30.272L 218.814 13.2L 226.646 13.2C 231.75 13.2 234.39 16.632 234.39 21.648C 234.39 26.664 231.75 30.272 226.382 30.272L 218.814 30.272Z"/>
<path id="path29_fill" d="M 257.702 67.056L 252.862 78.232C 252.862 78.232 257.438 81.4 263.422 81.4C 270.638 81.4 278.558 77.88 282.342 67.76L 300.91 17.6L 284.278 17.6L 278.558 38.72C 277.942 41.184 277.062 45.496 277.062 45.496L 276.886 45.496C 276.886 45.496 276.006 40.92 275.214 38.456L 268.526 17.6L 251.278 17.6L 270.55 62.04L 269.67 64.152C 268.086 68.024 264.83 68.728 262.366 68.728C 260.166 68.728 257.702 67.056 257.702 67.056Z"/>
<path id="path30_fill" d="M 0 63.272L 23.144 63.272C 35.64 63.272 47.08 58.256 47.08 44.528C 47.08 38.984 44.44 32.56 37.224 30.36L 37.224 30.184C 41.976 27.456 44.528 22.088 44.528 16.808C 44.528 5.984 35.728 0.352001 23.144 0.352001L 0 0.352001L 0 63.272ZM 15.4 24.728L 15.4 13.552L 23.056 13.552C 27.192 13.552 28.864 16.016 28.864 18.92C 28.864 21.912 27.192 24.728 23.32 24.728L 15.4 24.728ZM 15.4 50.072L 15.4 37.048L 24.728 37.048C 29.216 37.048 31.328 39.952 31.328 43.472C 31.328 46.992 29.128 50.072 24.64 50.072L 15.4 50.072Z"/>
<path id="path31_fill" d="M 54.9649 63.272L 70.1889 63.272L 70.1889 45.672C 70.1889 37.4 74.2369 32.032 82.6849 32.032C 83.7409 32.032 85.2369 32.12 85.7649 32.296L 85.7649 17.336C 85.2369 17.248 84.6209 17.16 84.0049 17.16C 77.2289 17.16 71.5089 22.264 69.5729 28.424L 69.3969 28.424C 69.3969 28.424 69.5729 27.104 69.5729 25.608L 69.5729 17.952L 54.9649 17.952L 54.9649 63.272Z"/>
<path id="path32_fill" d="M 89.8817 40.568C 89.8817 52.624 98.5937 64.328 114.786 64.328C 121.738 64.328 129.218 61.952 134.146 57.728L 128.514 47.08C 124.818 49.544 120.506 51.656 116.018 51.656C 111.178 51.656 106.602 49.104 105.458 43.56L 134.058 43.56C 134.234 41.976 134.41 40.392 134.41 38.808C 134.41 26.224 126.842 16.896 113.466 16.896C 98.8577 16.896 89.8817 27.28 89.8817 40.568ZM 105.81 34.848C 106.602 31.24 108.714 28.072 113.114 28.072C 116.986 28.072 119.362 31.152 119.362 34.848L 105.81 34.848Z"/>
<path id="path33_fill" d="M 139.195 50.512C 139.195 58.344 145.267 64.328 153.979 64.328C 159.171 64.328 164.451 61.952 167.443 57.728L 167.619 57.728C 167.619 57.728 167.443 59.048 167.443 60.544L 167.443 63.272L 181.347 63.272L 181.347 35.376C 181.347 23.848 173.603 16.896 161.107 16.896C 153.715 16.896 145.795 19.8 141.923 22.792L 147.203 33.528C 150.811 31.152 155.299 29.216 159.699 29.216C 163.043 29.216 166.123 30.448 166.123 34.232L 166.123 35.024L 164.803 35.024C 153.627 35.024 139.195 38.368 139.195 50.512ZM 154.243 49.104C 154.243 44.968 160.227 43.736 164.891 43.736L 166.299 43.736L 166.299 44.968C 166.299 48.664 162.955 52.976 158.555 52.976C 155.739 52.976 154.243 51.216 154.243 49.104Z"/>
<path id="path34_fill" d="M 191.004 63.272L 206.228 63.272L 206.228 45.672L 210.98 45.672L 220.572 63.272L 237.908 63.272L 222.772 38.72L 222.772 38.544L 236.06 17.952L 219.516 17.952L 210.54 32.912L 206.228 32.912L 206.228 0.352001L 191.004 0.352001L 191.004 63.272Z"/>
<path id="path35_fill" d="M 246.252 63.272L 261.476 63.272L 261.476 30.624L 269.836 30.624L 269.836 18.744L 261.476 18.744L 261.476 17.336C 261.476 13.464 266.14 12.936 269.132 12.936C 270.276 12.936 271.244 13.024 271.596 13.112L 271.596 0.263997C 270.012 0 268.604 0 267.02 0C 259.716 0 246.252 2.024 246.252 16.896L 246.252 18.744L 240.708 18.744L 240.708 30.624L 246.252 30.624L 246.252 63.272Z"/>
<path id="path36_fill" d="M 273 50.512C 273 58.344 279.072 64.328 287.784 64.328C 292.976 64.328 298.256 61.952 301.248 57.728L 301.424 57.728C 301.424 57.728 301.248 59.048 301.248 60.544L 301.248 63.272L 315.152 63.272L 315.152 35.376C 315.152 23.848 307.408 16.896 294.912 16.896C 287.52 16.896 279.6 19.8 275.728 22.792L 281.008 33.528C 284.616 31.152 289.104 29.216 293.504 29.216C 296.848 29.216 299.928 30.448 299.928 34.232L 299.928 35.024L 298.608 35.024C 287.432 35.024 273 38.368 273 50.512ZM 288.048 49.104C 288.048 44.968 294.032 43.736 298.696 43.736L 300.104 43.736L 300.104 44.968C 300.104 48.664 296.76 52.976 292.36 52.976C 289.544 52.976 288.048 51.216 288.048 49.104Z"/>
<path id="path37_fill" d="M 321.377 57.64C 326.393 62.128 333.345 64.328 339.857 64.328C 351.473 64.328 358.513 57.904 358.513 49.456C 358.513 34.76 337.305 35.904 337.305 31.152C 337.305 29.92 338.273 28.952 341.529 28.952C 345.401 28.952 350.329 30.536 352.969 32.648L 358.161 22.088C 353.585 18.392 347.777 16.896 341.969 16.896C 331.497 16.896 323.137 21.912 323.137 31.24C 323.137 46.112 344.345 45.056 344.345 49.896C 344.345 51.304 343.289 52.272 340.209 52.272C 335.897 52.272 331.233 50.512 327.889 47.696L 321.377 57.64Z"/>
<path id="path38_fill" d="M 368.871 46.552C 368.871 61.776 382.863 63.712 390.079 63.712C 391.839 63.712 393.071 63.536 394.215 63.448L 394.215 50.248C 393.247 50.336 392.719 50.336 392.191 50.336C 389.287 50.336 384.095 49.632 384.095 44.528L 384.095 30.624L 393.599 30.624L 393.599 18.744L 384.095 18.744L 384.095 5.72L 369.311 5.72L 369.311 18.744L 363.063 18.744L 363.063 30.624L 368.871 30.624L 368.871 46.552Z"/>
<path id="path39_fill" d="M 15.2146 31.4665C 14.9047 24.6577 21.6666 8.17295 25.2701 3.24804C 28.8736 -1.67688 29.5809 -0.805028 28.1476 4.53732C 25.9872 12.5899 20.6602 22.0373 21.2545 25.8009C 21.8488 29.5646 24.5951 28.2969 24.9961 26.8022C 25.3971 25.3075 30.6099 5.87844 34.3179 2.46511C 37.7948 -0.735349 35.7776 6.0168 33.8974 11.5618C 31.9046 17.4392 30.5889 23.8932 29.7869 26.8827C 29.1452 29.2742 29.9468 32.2656 30.7285 32.3413C 31.4434 32.6661 33.6352 30.4758 34.2769 28.0842C 35.0789 25.0948 37.6319 18.5688 38.3874 12.7633C 39.143 6.95785 40.3206 -0.361607 42.3766 3.81807C 44.1931 7.51076 39.276 28.8271 38.7254 30.8792C 38.2235 32.75 39.8088 34.3707 42.2077 31.408C 44.6067 28.4454 46.1127 13.7529 47.36 9.15934C 48.6074 4.56576 48.874 4.529 50.3684 9.96438C 51.8627 15.3998 48.6895 34.1329 43.8538 39.1304C 37.9257 45.2569 36.5737 44.7603 31.5657 47.2331C 26.5576 49.706 10.9278 126.476 9.76571 128.486C 8.60361 130.496 6.75272 133.663 3.68595 131.64C 0.0176081 131.86 0 128.194 0 125.873C 0 123.552 24.8989 49.2622 21.7998 44.6198C 18.7008 39.9775 15.602 39.9775 15.2146 31.4665Z"/>
<path id="path40_stroke_2x" d="M 25.2701 3.24804L 21.2349 0.295538L 21.2349 0.295539L 25.2701 3.24804ZM 15.2146 31.4665L 20.2094 31.2392L 20.2094 31.2392L 15.2146 31.4665ZM 3.68595 131.64L 6.43841 127.466L 5.04856 126.55L 3.38674 126.649L 3.68595 131.64ZM 50.3684 9.96438L 45.5473 11.2899L 45.5473 11.2899L 50.3684 9.96438ZM 43.8538 39.1304L 40.2606 35.6535L 40.2606 35.6535L 43.8538 39.1304ZM 31.5657 47.2331L 29.3519 42.7499L 29.3519 42.7499L 31.5657 47.2331ZM 9.76571 128.486L 14.0944 130.989L 14.0944 130.989L 9.76571 128.486ZM 28.1476 4.53732L 23.3183 3.2417L 23.3183 3.2417L 28.1476 4.53732ZM 24.9961 26.8022L 20.1669 25.5065L 20.1669 25.5065L 24.9961 26.8022ZM 34.3179 2.46511L 30.9316 -1.21359L 30.9316 -1.21359L 34.3179 2.46511ZM 33.8974 11.5618L 29.1622 9.9562L 29.1622 9.9562L 33.8974 11.5618ZM 29.7869 26.8827L 34.6161 28.1783L 34.6161 28.1783L 29.7869 26.8827ZM 30.7285 32.3413L 32.7968 27.7891L 32.0389 27.4448L 31.2104 27.3646L 30.7285 32.3413ZM 47.36 9.15934L 52.1853 10.4696L 52.1853 10.4696L 47.36 9.15934ZM 42.2077 31.408L 38.3219 28.2616L 38.3219 28.2616L 42.2077 31.408ZM 38.7254 30.8792L 33.8962 29.5835L 33.8962 29.5836L 38.7254 30.8792ZM 42.3766 3.81807L 37.89 6.02506L 37.89 6.02506L 42.3766 3.81807ZM 38.3874 12.7633L 33.4292 12.118L 33.4292 12.1181L 38.3874 12.7633ZM 34.2769 28.0842L 29.4477 26.7885L 29.4477 26.7885L 34.2769 28.0842ZM 21.2349 0.295539C 19.0169 3.32683 16.2341 9.20416 14.095 14.8903C 12.9965 17.8104 12.0031 20.8501 11.2983 23.6618C 10.6182 26.3752 10.1086 29.2505 10.2198 31.6938L 20.2094 31.2392C 20.1657 30.2781 20.3851 28.5395 20.9983 26.0931C 21.5868 23.7451 22.451 21.0792 23.4546 18.4114C 25.5198 12.9217 27.9197 8.09417 29.3052 6.20054L 21.2349 0.295539ZM 10.2198 31.6938C 10.4451 36.6444 11.5144 39.8104 13.4639 42.4583C 14.2892 43.5793 15.2564 44.5641 15.8602 45.212C 16.5271 45.9275 17.0887 46.5682 17.6413 47.3959L 25.9583 41.8438C 24.9614 40.3503 23.9735 39.2501 23.1757 38.394C 22.3147 37.4702 21.902 37.0527 21.5168 36.5295C 21.0453 35.8891 20.3715 34.7995 20.2094 31.2392L 10.2198 31.6938ZM 17.6413 47.3959C 17.157 46.6705 17.0755 46.062 17.0713 46.0359C 17.0547 45.9305 17.0698 45.9619 17.0663 46.1961C 17.0592 46.6619 16.9889 47.4402 16.8118 48.5833C 16.462 50.8417 15.7859 53.9631 14.8481 57.744C 12.9802 65.2743 10.1875 74.9722 7.27323 84.679C 4.36306 94.3722 1.35653 103.992 -0.933184 111.368C -2.07485 115.046 -3.04359 118.183 -3.72763 120.477C -4.06839 121.619 -4.34932 122.589 -4.54834 123.326C -4.64668 123.69 -4.73706 124.042 -4.80651 124.35C -4.83062 124.457 -5 125.149 -5 125.873L 5 125.873C 5 126.452 4.87925 126.858 4.94917 126.547C 4.97376 126.438 5.02281 126.24 5.10608 125.932C 5.27028 125.324 5.52126 124.454 5.85527 123.334C 6.52079 121.103 7.47306 118.019 8.61724 114.333C 10.8992 106.982 13.9237 97.3043 16.8509 87.5545C 19.7739 77.8185 22.6249 67.9286 24.554 60.1514C 25.5146 56.2785 26.2753 52.8163 26.6939 50.1143C 26.9011 48.7773 27.0479 47.4812 27.0651 46.3477C 27.0737 45.7822 27.0528 45.1326 26.9486 44.4737C 26.8569 43.8939 26.6363 42.8593 25.9583 41.8438L 17.6413 47.3959ZM -5 125.873C -5 126.814 -5.05902 129.315 -4.18683 131.537C -3.69798 132.782 -2.81502 134.237 -1.23343 135.304C 0.377627 136.39 2.21404 136.738 3.98515 136.631L 3.38674 126.649C 3.32368 126.653 3.78227 126.625 4.3583 127.013C 4.90487 127.382 5.09562 127.816 5.12152 127.882C 5.13412 127.914 5.07851 127.772 5.04062 127.344C 5.00382 126.928 5 126.473 5 125.873L -5 125.873ZM 45.5473 11.2899C 45.6885 11.8037 45.8278 13.2934 45.6707 15.799C 45.5239 18.1406 45.1505 20.9199 44.5841 23.7204C 44.0165 26.5269 43.2783 29.2394 42.4404 31.4733C 41.5503 33.8464 40.736 35.1622 40.2606 35.6535L 47.4471 42.6072C 49.3895 40.5998 50.7852 37.6999 51.8035 34.9851C 52.8739 32.1312 53.7423 28.8836 54.3856 25.7028C 55.0302 22.5159 55.4721 19.2804 55.6511 16.4247C 55.8199 13.733 55.7954 10.8428 55.1895 8.6389L 45.5473 11.2899ZM 40.2606 35.6535C 37.467 38.5406 36.0361 39.5679 34.9296 40.1849C 34.3255 40.5218 33.7151 40.7943 32.7907 41.1916C 31.8885 41.5793 30.7424 42.0633 29.3519 42.7499L 33.7794 51.7164C 34.893 51.1665 35.7939 50.7853 36.7389 50.3792C 37.6618 49.9826 38.699 49.5327 39.7999 48.9188C 42.1033 47.6343 44.3126 45.8466 47.4471 42.6072L 40.2606 35.6535ZM 29.3519 42.7499C 28.2582 43.29 27.5502 44.0746 27.1808 44.5306C 26.7609 45.0488 26.4178 45.6006 26.1422 46.0945C 25.5897 47.0846 25.0681 48.2801 24.5781 49.5415C 23.5879 52.0904 22.5134 55.4686 21.4063 59.3024C 19.1833 67.0009 16.701 76.9894 14.3581 86.8807C 12.0119 96.7859 9.78612 106.677 8.08204 114.183C 7.22762 117.946 6.50826 121.093 5.96741 123.358C 5.69596 124.494 5.47815 125.372 5.31582 125.981C 5.23351 126.29 5.17704 126.486 5.14367 126.592C 5.04882 126.896 5.14729 126.485 5.43699 125.984L 14.0944 130.989C 14.4568 130.362 14.6561 129.679 14.6889 129.574C 14.7831 129.272 14.881 128.922 14.9782 128.558C 15.175 127.82 15.417 126.84 15.6939 125.68C 16.2498 123.352 16.9813 120.152 17.8339 116.397C 19.5437 108.866 21.7563 99.0332 24.0888 89.1855C 26.4247 79.324 28.8614 69.5307 31.0138 62.0766C 32.0945 58.334 33.0718 55.2931 33.8994 53.1626C 34.3184 52.0841 34.6472 51.3748 34.8745 50.9676C 34.9887 50.7629 35.0177 50.743 34.9509 50.8255C 34.9344 50.8459 34.5601 51.3309 33.7794 51.7164L 29.3519 42.7499ZM 5.43699 125.984C 5.1364 126.504 4.90555 126.895 4.6652 127.237C 4.41782 127.59 4.29784 127.686 4.32383 127.665C 4.3781 127.622 4.75905 127.342 5.41503 127.296C 6.10698 127.247 6.48996 127.5 6.43841 127.466L 0.933481 135.815C 2.41532 136.792 4.1797 137.407 6.11754 137.271C 8.01941 137.137 9.51074 136.319 10.5563 135.485C 12.4225 133.998 13.6227 131.804 14.0944 130.989L 5.43699 125.984ZM 29.3052 6.20054C 30.1638 5.0271 30.6754 4.44652 30.8998 4.23163C 31.0405 4.09689 30.8441 4.3237 30.3665 4.56097C 30.002 4.74206 28.1032 5.58269 26.0161 4.32451C 24.1561 3.20316 23.9014 1.41282 23.8757 1.24615C 23.815 0.853387 23.8577 0.666063 23.8364 0.870253C 23.7993 1.22542 23.6579 1.97621 23.3183 3.2417L 32.9768 5.83294C 33.3539 4.42726 33.6615 3.06568 33.7823 1.90875C 33.84 1.35688 33.8888 0.563573 33.7585 -0.279934C 33.6632 -0.897347 33.2632 -2.98318 31.1791 -4.2396C 28.868 -5.63285 26.6664 -4.76687 25.9175 -4.39481C 25.0555 -3.96658 24.3931 -3.3832 23.9831 -2.99059C 23.1062 -2.15076 22.178 -0.993479 21.2349 0.295538L 29.3052 6.20054ZM 23.3183 3.2417C 22.3362 6.9024 20.6306 10.8869 19.0223 14.9289C 18.2563 16.854 17.4994 18.8329 16.9772 20.6225C 16.5064 22.2359 15.9809 24.4605 16.3157 26.5808L 26.1933 25.0211C 26.2309 25.2596 26.1484 24.8919 26.5768 23.4237C 26.9538 22.1318 27.5523 20.5398 28.3137 18.626C 29.7604 14.9902 31.7985 10.2248 32.9768 5.83294L 23.3183 3.2417ZM 16.3157 26.5808C 16.5514 28.0733 17.0944 29.7377 18.3119 31.0946C 19.653 32.5892 21.5032 33.3472 23.4029 33.2692C 25.13 33.1983 26.551 32.4627 27.5334 31.6412C 28.5114 30.8233 29.4166 29.6211 29.8253 28.0979L 20.1669 25.5065C 20.3751 24.7306 20.7866 24.2474 21.1184 23.97C 21.4544 23.689 22.0765 23.3153 22.9927 23.2777C 24.0813 23.233 25.1085 23.6957 25.7549 24.4161C 26.2778 24.9989 26.2548 25.4104 26.1933 25.0211L 16.3157 26.5808ZM 29.8253 28.0979C 30.0204 27.3706 31.3932 22.2554 33.1621 16.929C 34.0494 14.2572 35.0061 11.6245 35.9348 9.50051C 36.3997 8.43713 36.8253 7.5759 37.1968 6.93399C 37.6091 6.22158 37.796 6.05938 37.7043 6.14382L 30.9316 -1.21359C 29.9129 -0.27582 29.1258 0.915797 28.5417 1.92509C 27.9168 3.00487 27.3237 4.23321 26.7722 5.49465C 25.668 8.02028 24.6013 10.9783 23.6717 13.7773C 21.8069 19.3924 20.3728 24.739 20.1669 25.5065L 29.8253 28.0979ZM 37.7043 6.14382C 38.0055 5.86651 37.8222 6.11337 37.2507 6.34461C 36.5777 6.61691 34.3239 7.16218 32.4535 5.29761C 31.7604 4.60675 31.4755 3.88361 31.3602 3.50831C 31.2409 3.11981 31.2208 2.83601 31.2161 2.7494C 31.2072 2.58857 31.2279 2.62753 31.1747 2.97381C 30.9482 4.4461 30.1312 7.09866 29.1622 9.9562L 38.6326 13.1674C 39.5439 10.4799 40.6755 6.98391 41.0584 4.494C 41.1575 3.84973 41.2469 3.03478 41.201 2.20029C 41.1705 1.64551 41.0427 -0.260032 39.5134 -1.78459C 37.3725 -3.91875 34.7205 -3.41924 33.4998 -2.92526C 32.3805 -2.47236 31.4996 -1.7364 30.9316 -1.21359L 37.7043 6.14382ZM 29.1622 9.9562C 27.1106 16.0069 25.6334 23.0686 24.9577 25.587L 34.6161 28.1783C 35.5445 24.7179 36.6985 18.8714 38.6326 13.1674L 29.1622 9.9562ZM 24.9577 25.587C 24.3933 27.6905 24.4876 29.8453 24.827 31.4906C 24.9971 32.315 25.2793 33.2633 25.7489 34.1444C 25.9803 34.5785 26.3546 35.1819 26.935 35.7516C 27.4897 36.296 28.5966 37.1583 30.2466 37.318L 31.2104 27.3646C 32.665 27.5054 33.5758 28.2576 33.9396 28.6147C 34.329 28.9969 34.5175 29.3355 34.5738 29.4411C 34.6933 29.6653 34.6687 29.7021 34.6208 29.4702C 34.5244 29.0031 34.5388 28.4664 34.6161 28.1783L 24.9577 25.587ZM 42.5348 7.84907C 41.8368 10.4195 41.0538 15.7983 40.295 20.0084C 39.885 22.2834 39.4619 24.3774 39.0186 26.0383C 38.7969 26.8686 38.5924 27.5055 38.414 27.9589C 38.2079 28.4826 38.1446 28.4805 38.3219 28.2616L 46.0935 34.5545C 46.8706 33.5949 47.3791 32.4856 47.7194 31.6208C 48.0874 30.6857 48.4039 29.6528 48.6803 28.6173C 49.233 26.5466 49.7142 24.1249 50.1364 21.7822C 51.0422 16.757 51.6359 12.4928 52.1853 10.4696L 42.5348 7.84907ZM 38.3219 28.2616C 37.9905 28.6709 37.9785 28.5465 38.3721 28.3527C 38.8135 28.1353 39.96 27.7715 41.3312 28.3531C 42.67 28.921 43.2789 29.9935 43.4918 30.6729C 43.7016 31.3425 43.6365 31.8699 43.5546 32.1749L 33.8962 29.5836C 33.3712 31.5406 33.3857 35.8453 37.4263 37.5592C 39.431 38.4095 41.3922 38.0123 42.7899 37.324C 44.1397 36.6593 45.2255 35.6265 46.0935 34.5545L 38.3219 28.2616ZM 43.5546 32.1749C 43.8748 30.9814 45.2713 24.9943 46.362 18.8358C 46.9081 15.7528 47.3995 12.5061 47.6323 9.73409C 47.7482 8.35447 47.8098 6.98297 47.7597 5.75332C 47.717 4.70616 47.5806 3.0695 46.8631 1.61109L 37.89 6.02506C 37.6267 5.48982 37.734 5.32707 37.768 6.16047C 37.7945 6.81137 37.7657 7.72708 37.6674 8.89721C 37.4719 11.2247 37.0403 14.1277 36.5153 17.0919C 35.464 23.0278 34.1266 28.7249 33.8962 29.5835L 43.5546 32.1749ZM 46.8632 1.61109C 46.5038 0.880641 45.8775 -0.233848 44.8119 -1.10562C 44.2276 -1.58364 43.3638 -2.1091 42.2264 -2.32123C 41.0282 -2.54469 39.8755 -2.35376 38.9033 -1.90668C 37.217 -1.13129 36.3708 0.259481 36.0455 0.841505C 35.6305 1.58403 35.3393 2.3703 35.129 3.03248C 34.3229 5.56995 33.794 9.31569 33.4292 12.118L 43.3456 13.4086C 43.7365 10.4055 44.174 7.58876 44.6597 6.06005C 44.7722 5.70569 44.8243 5.63143 44.7746 5.72028C 44.7459 5.77169 44.6369 5.96118 44.4209 6.20284C 44.212 6.43672 43.7801 6.85737 43.081 7.17882C 42.3144 7.53133 41.3734 7.69211 40.393 7.50928C 39.4734 7.33777 38.8337 6.92372 38.4798 6.63422C 37.8751 6.1395 37.7353 5.71059 37.89 6.02506L 46.8632 1.61109ZM 33.4292 12.1181C 33.106 14.6021 32.3763 17.3682 31.5671 20.0211C 30.852 22.3655 29.8626 25.2419 29.4477 26.7885L 39.1061 29.3799C 39.4932 27.9371 40.1813 26.0557 41.1321 22.9385C 41.9888 20.1296 42.9134 16.73 43.3456 13.4086L 33.4292 12.1181ZM 29.4477 26.7885C 29.3703 27.0768 29.1138 27.5494 28.7957 27.9066C 28.6379 28.0839 28.6344 28.0404 28.8491 27.9065C 28.9502 27.8435 29.282 27.6449 29.8094 27.5086C 30.3016 27.3815 31.4662 27.1846 32.7968 27.7891L 28.6603 36.8935C 30.1696 37.5792 31.559 37.3849 32.3104 37.1908C 33.0971 36.9876 33.7224 36.6525 34.1396 36.3924C 34.9864 35.8645 35.7049 35.1848 36.2646 34.5561C 37.3816 33.3016 38.5418 31.4832 39.1061 29.3799L 29.4477 26.7885ZM 52.1853 10.4696C 52.5108 9.27091 52.6919 8.68365 52.7943 8.42532C 52.8654 8.24593 52.7577 8.5928 52.3985 9.05028C 52.1207 9.40401 50.4406 11.3283 47.6296 10.6688C 46.5063 10.4053 45.7829 9.81398 45.435 9.47448C 45.0802 9.12821 44.8832 8.81783 44.8118 8.69984C 44.6745 8.47313 44.6612 8.3836 44.7532 8.63254C 44.9226 9.09102 45.1673 9.90769 45.5473 11.2899L 55.1895 8.6389C 54.8223 7.30338 54.4732 6.08638 54.1334 5.1666C 53.9707 4.72641 53.724 4.11161 53.3656 3.51989C 53.1927 3.23431 52.1653 1.46139 49.9135 0.933152C 46.8978 0.225699 45.017 2.25866 44.5336 2.8742C 43.9688 3.59349 43.6507 4.3553 43.498 4.7404C 43.1529 5.61106 42.8329 6.75098 42.5348 7.84907L 52.1853 10.4696Z"/>
</defs>
</svg>
